<svg xmlns="http://www.w3.org/2000/svg" viewBox="0 0 213.45 219.81"><defs><style>.cls-1{fill:#a3da4b;}.cls-2,.cls-5{fill:#f5b400;}.cls-3{fill:none;stroke-width:8px;}.cls-3,.cls-5{stroke:#fff;stroke-linecap:round;stroke-miterlimit:10;}.cls-4{fill:#fff;}.cls-5{stroke-width:13px;}</style></defs><g id="Layer_2" data-name="Layer 2"><g id="Layer_2-2" data-name="Layer 2"><path class="cls-1" d="M157.74,121.86S117.31,132.49,81.26,99s-115.69,27-64.68,85.16,130.22,30.92,153.67,16.44c15.82-9.77,54.5-42,40-86.23a7.36,7.36,0,0,0-.61-1.34c-2-3.24-11-16.13-26.6-5.88C165.35,118.82,162.55,120.33,157.74,121.86Z"/><line class="cls-2" x1="136.68" y1="4" x2="136.68" y2="98"/><line class="cls-3" x1="136.68" y1="4" x2="136.68" y2="98"/><path class="cls-4" d="M108.65,58.45a2.92,2.92,0,0,1,4,.91l24,37.68,24-37.68a2.92,2.92,0,1,1,4.93,3.13L139.14,104a2.92,2.92,0,0,1-4.92,0L107.75,62.49a3,3,0,0,1-.45-1.57A2.94,2.94,0,0,1,108.65,58.45Z"/><line class="cls-5" x1="94.93" y1="139.5" x2="178.43" y2="139.5"/></g></g></svg>