<svg xmlns="http://www.w3.org/2000/svg" viewBox="0 0 94.12 82.05"><defs><style>.cls-1{fill:#bfebce;}.cls-2{fill:#aeaeae;}.cls-3{fill:#acacac;}.cls-4{fill:#a9a9a9;}.cls-5{fill:#777;}.cls-6{fill:#b2b2b2;}.cls-7{fill:#b3b3b3;}.cls-8{fill:#a1a1a1;}.cls-9{fill:#a6a6a6;}.cls-10{fill:#a0a0a0;}.cls-11{fill:#868686;}.cls-12{fill:#717171;}.cls-13{fill:#8e8e8e;}.cls-14{fill:#afafaf;}.cls-15{fill:#bcbcbc;}.cls-16{fill:#959595;}.cls-17{fill:#9a9a9a;}.cls-18{fill:#b4b4b4;}.cls-19{fill:#adadad;}.cls-20{fill:#5b5b5b;}.cls-21{fill:#7c7c7c;}.cls-22{fill:#666;}.cls-23{fill:#646464;}.cls-24{fill:#696969;}.cls-25{fill:#b7b7b7;}.cls-26{fill:#797979;}.cls-27{fill:#838383;}.cls-28{fill:#7e7e7e;}.cls-29{fill:#898989;}.cls-30{fill:#7f7f7f;}.cls-31{fill:#4e4e4e;}.cls-32{fill:#565656;}.cls-33{fill:#545454;}.cls-34{fill:#525252;}.cls-35{fill:#a2a2a2;}.cls-36{fill:#6d6d6d;}.cls-37{fill:#818181;}.cls-38{fill:#4b4b4b;}.cls-39{fill:#535353;}.cls-40{fill:#626262;}.cls-41{fill:#5f5f5f;}.cls-42{fill:#888;}.cls-43{fill:#8c8c8c;}.cls-44{fill:#8a8a8a;}.cls-45{fill:#5d5d5d;}.cls-46{fill:#a8a8a8;}.cls-47{fill:#9d9d9d;}.cls-48{fill:#9f9f9f;}.cls-49{fill:#989898;}.cls-50{fill:#6a6a6a;}.cls-51{fill:#9b9b9b;}.cls-52{fill:#8d8d8d;}.cls-53{fill:#949494;}</style></defs><g id="Layer_2" data-name="Layer 2"><g id="fotos"><circle class="cls-1" cx="47.06" cy="41.03" r="41.03"/><path class="cls-2" d="M25.86,65c-2.17-.24-4.35-.51-6.52-.74a67.45,67.45,0,0,0-9.64-.35c-2.44.1-4.83.62-7.28.62-.55,0-.8-.1-.58-.68A5.26,5.26,0,0,0,2,61.09c-.27-1.71-.11-3.44-.28-5.15-.8-8.29-.47-16.6-.53-24.9,0-.23,0-.46,0-.69a21.52,21.52,0,0,0,1.76-3,3.37,3.37,0,0,0,.35-1.4,2.24,2.24,0,0,1,1-1.92,2.64,2.64,0,0,0,.93-2A28.13,28.13,0,0,1,7,16.42c.4-1.14,1.25-2.14,1.75-3.29a.33.33,0,0,1,.41-.22,2.23,2.23,0,0,1-.41,2.54,1.41,1.41,0,0,0-.5,1.13,2.23,2.23,0,0,1-.48,1.26,3.35,3.35,0,0,0-.31,3.35,2.82,2.82,0,0,1,0,1.86c-.1.4-.16.7.23,1a.56.56,0,0,1,.08.95c-.63.65-.45,1.4-.34,2.33a4.14,4.14,0,0,0,.81-1.61,7.31,7.31,0,0,1,.92-2.58.87.87,0,0,0,0-1.05,2.65,2.65,0,0,1-.35-2.14,2.42,2.42,0,0,0,0-1.28,1.11,1.11,0,0,1,.54-1.5c.53-.37.78-.36,1.09.21a2.14,2.14,0,0,1,.19,1.09A2.91,2.91,0,0,0,11,19.58c.14.34.36.68.74.42a.71.71,0,0,0,.2-1.05,4,4,0,0,1-.67-1.18,1.43,1.43,0,0,1-.11-.76c.09-.45.18-1,.7-1.06s.62.47.78.86a2.07,2.07,0,0,1,.15.58c.07.58.35.88.94.85a1.15,1.15,0,0,1,.72.17c.21.13.42.36.23.55-.68.62-.29,1.08.14,1.58.1.11,0,.2-.09.27-.93.34-1.84-.1-2.76,0h-.73c-.41,0-.68.1-.69.6s.15.7.62.65a77.74,77.74,0,0,1,11.18,1.35,3.33,3.33,0,0,1,1.11.34.89.89,0,0,1,.24.94c-.39,1.38-.93,2.71-1.26,4.11-1.05.34-2.08-.1-3.13-.1-3.07,0-6.14-.55-9.22-.11-.58,0-.55.4-.53.79,0,.57.44.44.77.45A99.53,99.53,0,0,1,29.9,31.32a34.65,34.65,0,0,1,5,1.26.82.82,0,0,1,.32.26,1.94,1.94,0,0,1,.2.74.71.71,0,0,0,.57.65.74.74,0,0,0,.79-.34,3.48,3.48,0,0,0,.67-1.07c.26-1.15,1.11-2,1.51-3,.09-.25.2-.55.57-.49.29.72-.37,1.45,0,2.18.06.11-.09.27-.23.31-1,.28-.89,1.35-1.34,2-.17.24.17.28.35.29a2,2,0,0,1,1,.32c.41.3.4.74-.06.92s-1.06.65-1.55-.07c-.09-.14-.23-.27-.42-.17a.47.47,0,0,0-.21.44c0,.34.11.67.1,1s-.12.76-.56.83-.59-.28-.53-.87c-.59,1-1,1.94-2.16,2-2.21-.29-4.37-.83-6.58-1.06-2.67-.29-5.35-.47-8-.67-3-.22-6-.09-9.06-.14-.54-.05-.73.27-.73.77s.42.63.86.61c2.48,0,4.95-.11,7.42,0a95.81,95.81,0,0,1,16.7,2,2,2,0,0,1,.47.14.61.61,0,0,1,.25.23c.39.74.47.73,1,.08a2.32,2.32,0,0,0,.38-1.8c-.07-.52.11-.7.6-.54a3.29,3.29,0,0,0,1,.08c.64,0,.94.28,1.13,1a7.42,7.42,0,0,1,.6,2.63c-.07.69-.24,1.36-.27,2,0,.38-.32.68-.7.43-.62-.42-1.36-.5-2-.85-.19-.11-.44-.17-.56-.36-.53-.79-1.43-.85-2.18-1.15s-.66.42-.72.86,0,.75-.44.94-.83,0-1.06-.79c.07,1.22-1.18,1.76-1.33,2.88,0,.3-.38.39-.67.4-2.72-.41-5.43-.91-8.16-1.23a90.17,90.17,0,0,0-10.65-.24,1.61,1.61,0,0,0-.8.2c-.27.14-.29.4-.26.67a.45.45,0,0,0,.42.44,4.71,4.71,0,0,0,.75,0c1.53,0,3.06,0,4.58,0a53.49,53.49,0,0,1,10,.85,23.65,23.65,0,0,1,4.33.83c.33.27.11.56,0,.84A6.18,6.18,0,0,0,30,52.39a1.92,1.92,0,0,1-.64,2.07,2,2,0,0,1-1.69-.28c-.16-.34.1-.52.26-.75s.22-.3.07-.46a.42.42,0,0,0-.47,0,1,1,0,0,0-.58.46c-.15.24-.27.51-.56.61a2.91,2.91,0,0,1-1.1.06c-1.76-.21-3.52-.36-5.28-.48-2.64,0-5.27-.27-7.91-.18-.89,0-1.77.16-2.66.25-.43,0-.84.14-.74.78s.46.6.91.55a74.92,74.92,0,0,1,8.07-.09c2.82,0,5.58.43,8.37.61a12.89,12.89,0,0,1,4,.92c.31.26.2.56.09.86s-.27.63-.38,1c-.05.16-.15.35,0,.49s.35,0,.5-.08c.4-.32.54,0,.64.29a1.29,1.29,0,0,1-.09,1.16,14.11,14.11,0,0,1-1.57,2.32.75.75,0,0,0,.05,1.29c.2.17.49.35.36.7a.82.82,0,0,1-.74.48,11.12,11.12,0,0,1-2.08,0A2.17,2.17,0,0,0,25.86,65Z"/><path class="cls-3" d="M94.11,50.89v7.44A18.5,18.5,0,0,0,94,60.8c.07.36-.21.24-.37.28a19.19,19.19,0,0,1-3.46.31c-1.68.18-3.37.12-5.06.19-1,0-2.1.14-3.15.2-.86.1-1.1-.06-1.06-.9.07-1.11.12-2.23.11-3.34a6.14,6.14,0,0,0-.71-3.44c-.72-1.13-.52-2.4-.61-3.64a6.54,6.54,0,0,1,3.11-.61c.33,0,.74.29.81-.33.08-.79-.12-1.11-.7-1.15a14.92,14.92,0,0,0-1.89.18,11,11,0,0,1-2.5.16,1.08,1.08,0,0,1-.48-1c.11-2.44-.29-4.85-.23-7.29a.76.76,0,0,1,.1-.41,1.29,1.29,0,0,1,1.34,0,1.82,1.82,0,0,1,.5,1.24,28,28,0,0,0,.59,3.19c0,.23,0,.49.32.51a.54.54,0,0,0,.54-.33A3.08,3.08,0,0,0,81.49,43q-.12-3.44-.41-6.85c-.15-1.89-.25-3.77-.41-5.66a2.47,2.47,0,0,1,.14-1.26,1.28,1.28,0,0,1,1-.44c.46-.06.59-.34.57-.78a.62.62,0,0,0-.63-.65c-.37,0-.79,0-1.09-.3a1.55,1.55,0,0,1-.26-.8c-.08-2.21-.3-4.4-.37-6.6a2.1,2.1,0,0,1,.13-.93c.34-.42.81-.29,1.24-.32s.77,0,1.16,0,.77-.19.77-.71a.78.78,0,0,0-.74-.79,15.18,15.18,0,0,0-1.91-.06.92.92,0,0,1-1-1c0-2.12-.29-4.21-.41-6.32a.88.88,0,0,1,.15-.65,8.34,8.34,0,0,1,2.11-.31c1-.14,1.93-.15,2.89-.22,1.27.27,2.42-.38,3.62-.56.86-.13,1.72,0,2.57-.15.76,0,1.57,0,2.15.67,0,0,.15.12.19.1,1-.44.79.43.8.9.13,7.24.23,14.47.14,21.71,0,2.18-.18,4.36-.13,6.54C93.86,42,94,46.42,94.11,50.89Z"/><path class="cls-4" d="M34.18,38.3a2.2,2.2,0,0,0,1.39-1.46.56.56,0,0,1,.63-.54c.35,0,.22.3.13.51s-.17.34.07.42A.43.43,0,0,0,37,37a1.21,1.21,0,0,0,0-.84,1.87,1.87,0,0,1-.1-.84.67.67,0,0,1,.44-.58c.3-.12.44.11.58.34s1.42.34,1.58,0-.07-.42-.3-.52a3,3,0,0,0-1.22-.2c-.39,0-.54-.21-.28-.53A17.16,17.16,0,0,0,38.58,32c.13-.2.07-.75.57-.33.15.12.36-.12.24-.27-.55-.74.16-1.36.14-2.05a.27.27,0,0,1,.23-.38c.44.27.39.76.37,1.16A20.12,20.12,0,0,1,40,32.67a5,5,0,0,0,0,1.8,2.52,2.52,0,0,1,0,1.19c0,.11,0,0,0,.08a21,21,0,0,1,.1,3.55c-.1.5.35.93,1,.93.3,0,.58.14.57.49s-.33.38-.58.37c-.57,0-.53.33-.57.78-.14,1.53.28,3.06,0,4.58a.9.9,0,0,0,.88,1c.19,0,.44,0,.46-.26S41.5,47,41.32,47c-.34,0-.74,0-.83-.4a1.27,1.27,0,0,1,.5-1.2c.22-.21.61-.18.7-.55-.23-.23-.48,0-.72-.07a.67.67,0,0,1-.44-.47.52.52,0,0,1,.17-.54,4.56,4.56,0,0,1,2.44-.17,1.77,1.77,0,0,1,0,1.16A1.41,1.41,0,0,0,43,45.82a23.73,23.73,0,0,1,.08,3.58c0,.42,0,.85,0,1.28C43.2,56.44,42.84,62.19,43,68a1.36,1.36,0,0,1-.25,1L39,67.82c.15-.24.39-.53.13-.77-.78-.78-.6-1.94-1.11-2.83-.12-.19-.09-.41-.43-.35-.73.14-.67-.46-.5-.81.36-.74.26-1.75,1.3-2.14a8.3,8.3,0,0,0-1.93-.6c-.2-.07-.38.08-.51.23a1.82,1.82,0,0,1-.9.6c-.36.12-.78.71-1.06.15a1.27,1.27,0,0,1,.33-1.49,2.69,2.69,0,0,1,2.09-.7c.91.17,1.12-.34,1.41-.94.1-.21,0-.58.4-.55a.79.79,0,0,1,.64.48,2.2,2.2,0,0,1,.15.31c.14.33.34.69.72.6s.2-.54.25-.83a1.43,1.43,0,0,1,.07-.51c.24-.46.11-.68-.39-.72a.83.83,0,0,1-.51-.27c-.23-.25-.41-.25-.71,0-.51.36-.89.1-.89-.53a1.87,1.87,0,0,1,.15-.67,1.46,1.46,0,0,0-.19-1.75c-.2-.19-.09-.49-.14-.74-.09-.55-.25-1-1-.77a.92.92,0,0,1-.72-.12c-1.34-.62-2.3,0-2.4,1.49,0,1-.52,1.4-1.7,1.63C30.81,55,30,55,29.35,54.37a3.39,3.39,0,0,0,.22-2.73,4.77,4.77,0,0,1,.3-2.67c.13-.34.32-.66.48-1,.57-.31,1.13,0,1.69.08.33,0,.65.13,1,.2s.8.09.9-.46-.19-.8-.66-.9a20.87,20.87,0,0,0-2.36-.44c-.28,0-.65.06-.72-.39.43,0,.4-.44.48-.71A2.07,2.07,0,0,1,31.54,44c.18-.1.35-.24.17-.47s-.27-.57,0-.81a.47.47,0,0,1,.55,0c.43.27,0,.6,0,.94.55,0,1,.17.92-.8-.11-1.12.42-1.11,1.46-.93,1.23.22,1.8,1.35,2.91,1.65.48.13,1.09,0,1.45.65.13.24.47-.06.42-.27-.18-.78.28-1.47.22-2.24s.07-1.45-.55-2c0,0,0,0,0-.07.16-1.49-.88-1.14-1.67-1.16a1.3,1.3,0,0,1-.7-.31A2.67,2.67,0,0,1,36,41.09c-.18.15-.25.53-.57.4s-.23-.49-.24-.76v-.35l.1-.06c.48,0,.84-.08.92-.68,0-.34.09-.61-.34-.66s-.79-.15-1.18-.27C34.48,38.65,34.18,38.66,34.18,38.3Z"/><path class="cls-5" d="M45.87,18.47c1.32-.6,2.65-1.21,4-1.79a6.5,6.5,0,0,1,.85-.28c.44.52.11,1.2.36,1.76.12,1.29.14,2.58.21,3.87.19,3.79.45,7.57.65,11.35.07,1.46.22,2.92.21,4.38a4.45,4.45,0,0,0,.26,1.7,2,2,0,0,1,.07,1.43.87.87,0,0,0-.06.5,18.25,18.25,0,0,1,.31,5c0,2,.18,4,.06,6-.08,1.5.3,3,.19,4.47,0,.39,0,.8,0,1.2a1.47,1.47,0,0,1-1.59,1.41c-.25,0-.5-.09-.75-.08a1.5,1.5,0,0,1-1.73-1.35c-.1-1.49-.21-3-.21-4.47,0-3.56-.28-7.11-.35-10.66a2.49,2.49,0,0,1,0-.76c.07,1.18,0,2.51.11,3.84.15,3,.2,6,.26,9,.06,2.61.15,5.22.31,7.82a3.07,3.07,0,0,1-.11,1.28c-.56.51-.8-.08-.84-.41a8.92,8.92,0,0,1-.18-3.46,9,9,0,0,0,0-2.88c0-.53-.47-.74-.84-1a1,1,0,0,1-.08-.81c.89-1.24.43-2.69.55-4a10,10,0,0,1,0-1.45c.13-.51-.13-.67-.55-.72a.43.43,0,0,1-.19-.21,5.47,5.47,0,0,1-.12-1.06c0-3.67,0-7.34,0-11A6.55,6.55,0,0,0,46.36,35c.11-2.29.08-4.59.08-6.88,0-1.9,0-3.79,0-5.68A4.29,4.29,0,0,0,46,20.23,8,8,0,0,1,45.87,18.47Z"/><path class="cls-6" d="M14.83,20.68c-.95-.12-.48-1.14-.95-1.49.14-.43.75.13.69-.4,0-.34-.47-.38-.77-.33-.79.12-1.22-.17-1.22-1a1.22,1.22,0,0,0-.11-.5c-.14-.32-.17-.89-.58-.82s-.59.62-.54,1a2.11,2.11,0,0,0,.78,1.63c.24.15.46.32.21.59s.05,1.09-.77,1a.71.71,0,0,1-.73-.54c-.17-.59-.55-1.14-.35-1.81a.62.62,0,0,0-.05-.33c-.15-.33-.51-.9-.66-.67-.25.42-1.18.41-.81,1.22a2.59,2.59,0,0,1,.09,1.67A2.25,2.25,0,0,0,9.43,22a.85.85,0,0,1,0,1.18,5,5,0,0,0-.91,2.44,9.14,9.14,0,0,1-1,2.15,2.47,2.47,0,0,1,.17-2.93c.21-.26.37-.55-.13-.7s-.58-.52-.33-1.05a2.15,2.15,0,0,0,0-1.82,3.47,3.47,0,0,1,.31-3.52c.28-.45.64-.86.42-1.47a.47.47,0,0,1,.19-.54c1.05-.68,1-1.74,1-2.81a1.38,1.38,0,0,1,.16-1.36,32.94,32.94,0,0,1,5.87.34,76.43,76.43,0,0,1,8.1,1.21,2.14,2.14,0,0,1,.39.16,7,7,0,0,0,2,1.11c.52.09.62.73.55,1.21a49.51,49.51,0,0,1-1.26,6,1,1,0,0,1-.36.56,1.19,1.19,0,0,1-.81.06c-2.79-.53-5.58-1-8.39-1.3A.81.81,0,0,1,14.83,20.68Z"/><path class="cls-7" d="M39.7,29l-.17.34a18.42,18.42,0,0,0-1.7,3.23,4.52,4.52,0,0,1-1.1,1.77c-.46.53-1.4.12-1.52-.6a4.92,4.92,0,0,1,0-.77,1.43,1.43,0,0,0,.86-1,.48.48,0,0,0-.3-.59,1.09,1.09,0,0,1-.23-.29c-.62-1.29-.84-2.54.22-3.74a1.18,1.18,0,0,0,.08-1.3,3,3,0,0,1-.33-.88c0-.34-.11-.6-.47-.67a31.16,31.16,0,0,0-4-1.2c-.47-.12-.94-.17-1.41-.25s-.72.05-1-.32c1-1.52,2.34-2.78,2.71-4.69a6.21,6.21,0,0,1,1.14-2.54c.18-.23.31-.56.7-.48a82.18,82.18,0,0,1,8.51,1.72,1,1,0,0,1-.15,1c-.89,1-.83,2.2-1,3.38-.25,2.3-.25,4.62-.5,6.92A1.23,1.23,0,0,1,39.7,29Z"/><path class="cls-8" d="M31.68,55c.88-.25,1.45-.61,1.39-1.78a1.71,1.71,0,0,1,2.6-1.43c.23.15.44.31.76.19s.35-.5.62-.17.71.66.59,1.17-.09.57.23.79a.84.84,0,0,1,.24,1.08,9.24,9.24,0,0,1-.29.89c-.14.33-.17.67.11.86s.46-.16.59-.38.36-.33.5-.06a1.13,1.13,0,0,0,1.08.62c.32,0,.84.15.28.66-.33.3-.15.71-.18,1.06s0,.87-.32.86a1,1,0,0,1-1-.63c-.13-.44-.22-.91-.78-1,.1.72-.51,1.08-.74,1.62a.3.3,0,0,1-.44.11c-.45-.31-.84-.08-1.3,0a1.56,1.56,0,0,0-1.52,1.93c.51-.26,1.19-.38,1.46-.78.48-.73.94-.58,1.54-.35.33.13.7.12,1,.22.18.06.49,0,.48.37a.58.58,0,0,1-.39.51c-.93.38-.68,1.41-1,2.09-.17.32.17.41.43.16s.39-.29.56.2c.36,1,.28,2.21,1.12,3.07.32.34.45.87-.33.94-2.94-.79-5.9-1.52-8.89-2.13-1.4-.28-2.84-.45-4.26-.67a1.26,1.26,0,0,1,1.08-.31H28.6c.38,0,.81,0,.94-.39s-.35-.37-.54-.55c-.46-.44-.66-.81-.07-1.33a14.57,14.57,0,0,0,1.78-2.53c.35-.45-.07-.85-.07-1.29-.23,0-.25.19-.3.31-.17.39-.44.25-.7.13s-.3-.35-.18-.63c.25-.6.48-1.21.72-1.82.26-.24.52-.08.78,0a15.46,15.46,0,0,0,1.77.37c.46.1.66-.09.77-.52s-.13-.59-.47-.75S32,55.59,31.68,55Z"/><path class="cls-9" d="M9.32,11.57a3.46,3.46,0,0,1-.16,1.36c-.57.78-.71,1.81-1.33,2.55a5.33,5.33,0,0,0-1.06,2.67c-.09.55-.68.84-.77,1.4-.13.77-.34,1.53-.46,2.29s-.61,1.34-.71,2.08a.51.51,0,0,1-.32.35c-.81.05-1,.77-1,1.29,0,1.44-.82,2.46-1.35,3.63-.23.49-.44,1-1,1.16l0-3.27c0-3.36-.07-6.72-.33-10.08a11.15,11.15,0,0,0-.5-2.86,4.07,4.07,0,0,1-.28-2c1.09.47,2.13,0,3.16-.19A30,30,0,0,1,9.32,11.57Z"/><path class="cls-10" d="M39.7,29A18.65,18.65,0,0,0,40,26.19a53.21,53.21,0,0,1,.65-7.57c0-.17,0-.43.12-.48.6-.28.68-.9.9-1.43a5.41,5.41,0,0,1,1.66.55c.24.36,0,.59-.21.8a1.53,1.53,0,0,0-.43,1.23c0,1.14.23,2.26.2,3.4a1.31,1.31,0,0,1,0,.28A5.92,5.92,0,0,0,43,24.65a1.5,1.5,0,0,1,.06.29,11.89,11.89,0,0,0,.14,2.38c.09.77,0,1.56.05,2.34a17,17,0,0,0,.08,2.67c-.18,2.23,0,4.46-.05,6.68,0,1.29,0,2.57,0,3.85a.81.81,0,0,1-.25.62c-.72-.08-1.35.53-2.11.29-.13,0-.36.19-.26.44a.48.48,0,0,0,.66.33c.22-.07.51-.6.7,0a.58.58,0,0,1-.52.8.82.82,0,0,0-.64.48c-.13.21-.36.42-.23.69a.53.53,0,0,0,.74.2c.41-.16.69,0,.79.35s-.32.52-.62.63a.89.89,0,0,1-1-.33c-.27-.31-.49-.55-.23-1.09a2.89,2.89,0,0,0,0-1.65,24.66,24.66,0,0,1-.1-2.84c-.07-.56-.18-1.24.78-.91.15,0,.45.08.46-.21s-.23-.31-.44-.27A.8.8,0,0,1,40,39.84c-.17-.58-.57-1.19,0-1.75.34-.33.13-.57,0-.83a1.73,1.73,0,0,1-.19-1.62.92.92,0,0,0,.12-.4c-.42-2,.26-3.93,0-5.88A1.61,1.61,0,0,0,39.7,29Z"/><path class="cls-11" d="M48.71,64.36c.07-2.35-.12-4.7-.22-7-.11-2.18,0-4.36-.13-6.53-.18-2.78-.15-5.56-.15-8.34a4.85,4.85,0,0,1,0-.85c.51,5.51.66,11,.78,16.56a11.72,11.72,0,0,1,.43,2.35.85.85,0,0,0,.47.85,8.55,8.55,0,0,0,2.12.41c.37,0,.51-.3.56-.63a8.19,8.19,0,0,0,0-1.21,2.17,2.17,0,0,1,.48-1.6.85.85,0,0,0,0-1.29.63.63,0,0,1-.22-.45c.06-1.43-.35-2.88.18-4.27a3.08,3.08,0,0,0,0-1.78,6.66,6.66,0,0,1-.1-1.72c.07-1,.3-1.28,1.26-1.5.39-.08.36-.35.47-.6.27-.67.15-1.54.92-2a.62.62,0,0,1,.38,0c.48.26.54.55.06.88a.77.77,0,0,0-.38.72c0,1.26-.36,2.48-.28,3.74,0,.14,0,.3,0,.43a4.75,4.75,0,0,1,.43,2.41A4.5,4.5,0,0,0,56.11,54c-.08.51-.45.58-.85.59-.35-.25-.7-.52-1.17-.26,0,.32.36.18.47.34a.72.72,0,0,1,0,.41c-.14.83,0,1,.77,1.09a.46.46,0,0,1,.36.15,4.65,4.65,0,0,1,.3,2.4,8.12,8.12,0,0,0,.41,3.35,2.09,2.09,0,0,1,0,1.73c-1,.52-1.92,1.29-2.94,1.8l-.89.47A2.52,2.52,0,0,0,51.2,67.8l-2.13.94c-.45-.47-.25-1.09-.34-1.64A7.64,7.64,0,0,1,48.71,64.36Z"/><path class="cls-12" d="M48.71,64.36a.59.59,0,0,1,.16.55c-.09,1.28.22,2.55.2,3.83-.9.5-1.8,1-2.68,1.52a.75.75,0,0,1-.78,0c-1-.43-1.93-.84-2.9-1.25,0-3.48-.11-7,0-10.43.11-2.67,0-5.34.12-8a35.75,35.75,0,0,0,.05-4.63A10.37,10.37,0,0,1,43,44.68c0-.4,0-.8,0-1.2,0-3.28,0-6.57,0-9.85a5.21,5.21,0,0,1,.15-1.36c-.06-.13,0-.2.12-.2a.81.81,0,0,1,.3.75c-.08,2,.27,3.91.17,5.87,0,5.55,0,11.1,0,16.65a42.28,42.28,0,0,0,.47,9.53c.42-.11.63-.36.64-.56.14-1.56,1.6-2.71,1.25-4.41a1.37,1.37,0,0,1,.1-.41,2.53,2.53,0,0,0,.55-1.76c0-.44-.12-.92.23-1.31.83.08,1.31.85,1.09,1.85a2.32,2.32,0,0,0,0,1.17,1.08,1.08,0,0,1,0,.75c-.71,1.2.14,2.39,0,3.58C48.13,64,48.46,64.22,48.71,64.36Z"/><path class="cls-13" d="M50.87,18.11c-.33-.54-.09-1.15-.17-1.71l.16-.06a5.94,5.94,0,0,0,1.88,1.18,2.88,2.88,0,0,0,2.71-.46c1.89-1,3.63-2.17,5.46-3.22a7,7,0,0,1,.82-.41c1.28-.3,1.41-.2,1.57,1.15.05.46.17.9.23,1.35a1.33,1.33,0,0,1,.06-.63.44.44,0,0,1,.18-.2c.78,0,.83.61.85,1.19A21.33,21.33,0,0,0,64.8,20c0,.4-.37.47-.65.57-2.83.94-5.58,2.08-8.31,3.29a1.06,1.06,0,0,1-.65.12c-.44-.15-.49-.51-.43-.9.18-1.32-.08-2.64.05-4,.06-.54-.17-.69-.7-.61a2.6,2.6,0,0,1-2.44-.41C51.42,17.81,51.14,18.07,50.87,18.11Z"/><path class="cls-14" d="M51.2,67.8c-.26-1.18.6-1.7,1.37-2,1.24-.48,2.1-1.61,3.4-1.91l.24-.06c.41-.59,1.1-.62,1.67-.87A11.6,11.6,0,0,0,60,62c.39-.27.87-.08,1.29-.22,1.2-.4,2.52-.36,3.58-1.25.41-.35.82.16,1.24.24.37.29.81.14,1.21.15,1.14,0,2.23.42,3.36.49.45,0,.87.18,1.26-.18a.35.35,0,0,1,.39-.07c1.65.77,3.31.24,5,0a5.06,5.06,0,0,1,1.16-.1,2.54,2.54,0,0,0,1.18.32c.35,0,.76.06.58.64-4.21.54-8.4,1.18-12.59,1.89a97.32,97.32,0,0,0-14.87,3.31C52.26,67.47,51.73,67.63,51.2,67.8Z"/><path class="cls-15" d="M33.2,15a6.58,6.58,0,0,0-1.7,3.41,4.79,4.79,0,0,1-1.13,2.23,3.23,3.23,0,0,0-.88,1.42.73.73,0,0,1-.83.55.63.63,0,0,1-.61.21c-.93-.14-1.88-.08-2.8-.3-.24-.06-.51-.07-.59-.39.37-1.59.81-3.17,1.09-4.77A5.25,5.25,0,0,0,26,15.09c-.07-.28-.14-.63-.49-.59-1,.1-1.34-.63-1.83-1.22,2,.19,4,.59,6,.94C30.84,14.43,32,14.73,33.2,15Z"/><path class="cls-16" d="M64.76,20a2.23,2.23,0,0,1-.36-1.53c0-.8,0-1.6,0-2.41,0-.49-.16-.83-.67-.91-.16-.68,0-.87.6-.91,1.41-.09,1.41-.09,1.5-1.58a1.37,1.37,0,0,1,.23-.81,6.86,6.86,0,0,1,1.82-.51c.21-.12.44,0,.65-.09.67-.18,1,.12,1.09.79s.39.86,1,.82c1.46-.1,1.71.17,1.85,1.72a4.12,4.12,0,0,1,.07,1.11,1.39,1.39,0,0,1-.48.68c-.37.31-.7.38-.88-.21-.12-.4-.29-.79-.79-.67s-.55.56-.52,1a4.43,4.43,0,0,1-.09,1.95c-.13.13-.26.25-.45.13-.31-.53-.11-1.12-.2-1.67-.06-.37,0-.91-.55-.88s-.64.54-.58,1A4,4,0,0,1,68,19C67,19.68,66.08,20.45,64.76,20Z"/><path class="cls-17" d="M79.41,8.79a59.45,59.45,0,0,1,.49,6.79c0,.67.15,1.06.87,1-.1.43-.45.37-.73.38a12.36,12.36,0,0,0-2.77.41,26.8,26.8,0,0,1-2.7.22.47.47,0,0,1-.43-.21,15.22,15.22,0,0,1-.09-4.1.79.79,0,0,1,.8-.74c.72-.07.93-.51,1-1.2a4.15,4.15,0,0,1,.36-2A12.24,12.24,0,0,1,79.41,8.79Z"/><path class="cls-2" d="M76.24,9.33A19.25,19.25,0,0,1,76.07,12c0,.66-.5.81-1,.78-.73,0-.88.32-.87,1,0,1.23,0,2.46,0,3.68a1.43,1.43,0,0,1-1.74.38,1.74,1.74,0,0,1-.09-1.92c0-.65-.19-1.29-.2-1.95a.74.74,0,0,0-.87-.81,5.61,5.61,0,0,1-.58,0c-1.17,0-1.18,0-1.36-1.18a.53.53,0,0,0-.6-.54l-.92,0,6.28-1.54Z"/><path class="cls-18" d="M80.24,62.09a.48.48,0,0,0-.73-.43c-.48.2-.73,0-.94-.41s0-.65-.07-1a12.6,12.6,0,0,1,.14-2.45A2.54,2.54,0,0,0,78.42,56c0-1.75-.49-3.5-.13-5.27a1,1,0,0,1,1.44-.26A6.55,6.55,0,0,1,80,52.66c-.09.62.41,1.16.74,1.68.23.35.48.61.25,1.06a.62.62,0,0,0,0,.42c.57,1.53.14,3.09.12,4.64,0,.94-.07,1.43.84,1.32C81.4,62.07,80.79,61.89,80.24,62.09Z"/><path class="cls-19" d="M66.05,11.87c0,.58,0,1.15,0,1.73,0,.94-.29,1.13-1.2,1-.49-.09-1.18-.45-1.14.6v.17c-.49-.07-.35-.51-.4-.8-.26-1.4-.31-1.44-1.6-.92-2.08,1.16-4,2.56-6.18,3.62-.75.15-1-.55-1.29-1s-.4-.31-.75-.27c-.6.06-1.22.49-1.83,0a31.69,31.69,0,0,1,6-2c2.57-.66,5.14-1.28,7.69-2C65.61,11.93,65.83,11.91,66.05,11.87Z"/><path class="cls-20" d="M43.05,29.66l0-2.41c-.12-.8,0-1.62-.16-2.42,0,0,0-.11,0-.16-.23-.56.11-1.18-.15-1.74v-.16c.16-1.18.34-2.36.43-3.55,0-.59-.33-1.57.91-1.33a1.6,1.6,0,0,1,.15-.29l1.67.87A2.81,2.81,0,0,1,46.2,20a.53.53,0,0,1-.22.12,7,7,0,0,0-2,.89.92.92,0,0,0-.3.76,38.69,38.69,0,0,0,0,6.09,3.85,3.85,0,0,1-.36,1.75A.16.16,0,0,1,43.05,29.66Z"/><path class="cls-17" d="M51.67,16c.8-.08,1.64.07,2.34-.52.16-.14.36-.1.34.13-.11,1,.69,1.17,1.19,1.62a2.68,2.68,0,0,1-2.54.65c-.71-.25-1.79-.53-2.14-1.55A1.61,1.61,0,0,1,51.67,16Z"/><path class="cls-21" d="M44.2,17.6v.92c-.25-.23-.27-.66-.63-.54s-.23.45-.19.68C43.57,19.87,43,21,43,22.18a.76.76,0,0,1-.3.59c-.09-1.31-.14-2.62-.27-3.93,0-.41.21-.56.39-.78s.61-.35.54-.8A1.46,1.46,0,0,1,44.2,17.6Z"/><path class="cls-22" d="M34.18,38.3c.57.36,1.27.2,1.84.52.27.83-.32,1.16-.84,1.53v0c-1.79-.3-3.58-.59-5.37-.92s-3.49-.46-5.24-.66a121.71,121.71,0,0,0-14.42-.52A1.19,1.19,0,0,1,10,36.42c2.55,0,5.11-.13,7.66,0a100.87,100.87,0,0,1,11,1C30.48,37.72,32.33,38,34.18,38.3Z"/><path class="cls-22" d="M35.68,31.08l.16.16c.4.94.1,1.48-.82,1.54-2.2-.53-4.38-1.16-6.63-1.48s-4.21-.54-6.31-.79c-3-.36-6.06-.41-9.09-.6-.93-.06-1.88.14-2.82.08a1.15,1.15,0,0,1-.33-1.68,43.52,43.52,0,0,1,7.31,0c1.79,0,3.56.37,5.36.35a8.42,8.42,0,0,1,3,.13c.55,0,1.1.12,1.65.2a51.16,51.16,0,0,1,7.62,1.62A1.72,1.72,0,0,1,35.68,31.08Z"/><path class="cls-23" d="M30.17,46.07c1.1.22,2.2.49,3.31.63.86.12.76.7.67,1.26s-.47.7-1,.54c-.9-.24-1.83-.35-2.75-.52-2.5-.4-5-.85-7.51-1.21a55.86,55.86,0,0,0-8.38-.37H10.54c-.38,0-.79,0-.7-.55s-.34-1,.52-1.19a35,35,0,0,1,5.32-.16A72.88,72.88,0,0,1,30.17,46.07Z"/><path class="cls-23" d="M31.68,55a15,15,0,0,0,1.56.52c.79.18.57.72.41,1.18s-.23.71-.92.5-1.7-.42-2.55-.61a33.35,33.35,0,0,0-6.35-1.09A18.66,18.66,0,0,1,19.58,55c-.37-.12-.85.27-1.34.22A65.75,65.75,0,0,0,11.51,55a10,10,0,0,0-2.38.28c-.42.09-.65,0-.64-.45a2.93,2.93,0,0,0-.11-.59c-.1-.45-.07-.72.5-.82a42.63,42.63,0,0,1,8.22-.24c1,0,1.94.07,2.91.12a9.41,9.41,0,0,1,2.6.63c.05,0,.11.07.15.05a9.8,9.8,0,0,1,2.59-.17h1.16c.4-.05.82-.19,1.15.21a5.12,5.12,0,0,0,1.69.32Z"/><path class="cls-24" d="M24.66,22.12a22.41,22.41,0,0,0,4,.48c.31.28.68.13,1,.18a1.59,1.59,0,0,0,1.34.35,14.5,14.5,0,0,1,4.16,1.21A1.33,1.33,0,0,1,35,26.15,1.64,1.64,0,0,1,33.74,26,22.38,22.38,0,0,0,29,24.83c-1.49-.27-3-.34-4.5-.58a1.48,1.48,0,0,1-1-.42c-1.78-.33-3.56-.72-5.36-.94a46.31,46.31,0,0,0-4.84-.45c-.78,0-1.54-.17-2.31-.21-.45-.24-.4-.65-.29-1a.57.57,0,0,1,.71-.44c.21,0,.3-.11.41-.23,1-.08,2,.29,3,.16A64.62,64.62,0,0,1,24,22.05,4.76,4.76,0,0,0,24.66,22.12Z"/><path class="cls-25" d="M23.51,23.83l5,.66c.19,0,.4,0,.54.15a6.63,6.63,0,0,1-.61,2.18c-.2.7-.61,1.33-.85,2-.06.17-.14.39-.41.32a40.35,40.35,0,0,1-4.65-.53c-.4-1.17.39-2.07.69-3.08A5.18,5.18,0,0,0,23.51,23.83Z"/><path class="cls-26" d="M25.35,53.85a.5.5,0,0,1-.7.28,1.34,1.34,0,0,0-1.46.1c-.18.12-.4.19-.54.07-.79-.63-1.78-.59-2.64-1C21.79,53.47,23.58,53.55,25.35,53.85Z"/><path class="cls-4" d="M27.66,54.05c-.38-.12-.81.11-1.15-.21.18-.56.4-1.08,1-1.19.25,0,.59-.16.74.17a.59.59,0,0,1-.23.81A.82.82,0,0,0,27.66,54.05Z"/><path class="cls-27" d="M11.83,20.52c0,.27.38.93-.42.44-.33-.21-.52,0-.57.36a1.22,1.22,0,0,0,.16.91c-.77.09-.65-.48-.68-1s.24-.78.76-.75C11.33,20.53,11.58,20.52,11.83,20.52Z"/><path class="cls-28" d="M9.84,28.31A2.59,2.59,0,0,0,10.17,30c-.32,0-.83.23-.81-.38S9,28.45,9.84,28.31Z"/><path class="cls-29" d="M35,32.78c.82-.2.89-.83.82-1.54.46,0,.57.26.43.68s-.23,1.24-1.08,1Z"/><path class="cls-30" d="M10,36.42a1.78,1.78,0,0,0,.16,1.86.66.66,0,0,1-.82-.7C9.32,37.07,9.32,36.53,10,36.42Z"/><path class="cls-10" d="M77.91,40.06a4.38,4.38,0,0,1,.17,1.44,19.15,19.15,0,0,0,.26,3.92,11.92,11.92,0,0,1-.11,2.12,1.58,1.58,0,0,0,.34,1.1c-.3.36-.73.34-1.13.43-1.89.42-3.82.56-5.68,1.11a14.79,14.79,0,0,0-2.18.36,2.75,2.75,0,0,1-1.24.11.94.94,0,0,1-.43-.79,13,13,0,0,1-.15-3.41,23.48,23.48,0,0,0-.06-3.25,8.45,8.45,0,0,1,.1-1.88,1.16,1.16,0,0,1,.87-.42,46.53,46.53,0,0,1,8.63-1C77.52,39.88,77.75,39.85,77.91,40.06Z"/><path class="cls-31" d="M72.57,17.76a4.75,4.75,0,0,0,1.66-.36,30.74,30.74,0,0,0,4.58-.62c.65-.17,1.34.16,2-.21.58,0,1.16,0,1.73,0,.79.05,1.09.43,1.08,1.21s-.58.81-1.1.83c-.74,0-1.49,0-2.24,0a3.37,3.37,0,0,1-1.89.42c-1.34.16-2.67.37-4,.65-.58.09-1.15.25-1.73.35a77,77,0,0,0-10,3.17,45,45,0,0,0-7.73,3.32l-.52.26c-.52.24-1,.51-1.44-.22a1.31,1.31,0,0,1,.34-1.89,4.4,4.4,0,0,1,2-.9c1.19-.51,2.37-1.06,3.58-1.54,2-.77,4-1.5,6-2.25a8,8,0,0,0,3.13-1c.45-.35.91-.65,1.5-.38l.34-.16a1,1,0,0,1,.66-.33C71.14,18.14,71.82,17.75,72.57,17.76Z"/><path class="cls-32" d="M80.75,27.12c.22,0,.44,0,.66,0,1.1,0,1.4.37,1.17,1.51-.06.29-.21.34-.45.37-.41.06-.81.14-1.22.21a6.26,6.26,0,0,1-2.18.38c-.41.06-.83.08-1.24.15s-.83.16-1.26.2c-1.94.32-3.88.62-5.81,1q-1.58.19-3.12.54a7.43,7.43,0,0,0-1,.18c-.94.21-1.89.43-2.82.69a45.35,45.35,0,0,0-7.56,2.53,2.15,2.15,0,0,1-1.18.35,1.31,1.31,0,0,1-.84-1.33c0-.75.55-1,1.07-1.25,1.46-.52,2.9-1.09,4.4-1.5,1.32-.36,2.63-.88,4-1.29C66.48,29,69.77,28.51,73,28c.36-.07.73-.09,1.09-.18A42.06,42.06,0,0,1,80.75,27.12Z"/><path class="cls-8" d="M80.75,27.12a1.78,1.78,0,0,1-1.35.31,14.49,14.49,0,0,0-3.93.43,10.85,10.85,0,0,1-1.39.11.66.66,0,0,1-.13-.72,8.51,8.51,0,0,0,.1-3.41,20.24,20.24,0,0,1,.18-4.33,38.17,38.17,0,0,1,6-.86C80.27,21.48,80.49,24.3,80.75,27.12Z"/><path class="cls-33" d="M68.4,50.55l1.15-.18a2.38,2.38,0,0,1,1.21,0,.74.74,0,0,0,1-.32c.37-.4.88-.3,1.33-.38,1.84-.35,3.68-.66,5.52-1a17.62,17.62,0,0,1,2.5-.32,2.92,2.92,0,0,0,1.78.06c.39-.09.78,0,.78.58,0,1-.07,1.1-.74,1.09a18.78,18.78,0,0,0-3.16.44c-.43.14-.92-.09-1.32.25a12.12,12.12,0,0,1-3.14.71c-2.33.42-4.65.87-7,1.39s-4.71,1.08-7.06,1.64c-.94.23-1.82.65-2.77.82-.37-.14-.64-.5-1.12-.36s-.48-.21-.42-.53a2.1,2.1,0,0,1,.54-1,17,17,0,0,1,6.18-1.78c.47,0,.71-.42,1.12-.51.86-.18,1.71-.38,2.57-.57A9.21,9.21,0,0,1,68.4,50.55Z"/><path class="cls-34" d="M77.91,40.06a53.23,53.23,0,0,0-6.66.64,29.57,29.57,0,0,0-3.37.68c-.45.39-1,.32-1.55.46-.74.17-1.49.31-2.23.47A38,38,0,0,0,57,44.55a1.49,1.49,0,0,1-1,.2,1.82,1.82,0,0,1,0-2.18,1.65,1.65,0,0,1,.75-.52,25.88,25.88,0,0,1,5.37-1.66c.6-.1,1.13-.46,1.74-.51a.82.82,0,0,1,.49,0c.43.59.5-.13.74-.22a4.34,4.34,0,0,1,1.21-.37c.48-.07,1-.18,1.45-.25,1.51-.32,3-.55,4.55-.8s2.94-.31,4.41-.41c.25,0,.5,0,.75,0,.64,0,1.28,0,1.92,0A1.23,1.23,0,0,1,80.55,39c.14.94-.43,1.36-1.31,1Z"/><path class="cls-35" d="M79.24,40c.65.07,1.12-.12,1.13-.91,0-.62-.54-1-1.32-1H77.4c-.35-.18-.39-.52-.41-.87-.11-2.37.24-4.73.18-7.1a.81.81,0,0,1,.24-.62,13.33,13.33,0,0,1,3.5-.34c0,2.39.24,4.78.49,7.16a20.34,20.34,0,0,1,.09,2c0,2,.58,4,0,6.06a.89.89,0,0,1-1.16.75c-.16,0-.33,0-.34-.25a33.21,33.21,0,0,0-.79-4.65A2.26,2.26,0,0,1,79.24,40Z"/><path class="cls-36" d="M82.89,50.05c.88,0,.56-.85.56-1.24s-.47-.32-.87-.13a1.39,1.39,0,0,1-1.51-.36,7.74,7.74,0,0,1,2.14-.17c1,.15.52,1,.59,1.53S83.37,50.36,82.89,50.05Z"/><path class="cls-2" d="M35.44,44.68c0,1.1,1,.78,1.52,1.09.3.17,0,.32-.14.43s-.67.34-.43.91c.13.31-.32.44-.48.23-.48-.59-1.09-1.16-1-2.05C35,45.07,35,44.75,35.44,44.68Z"/><path class="cls-27" d="M35.18,40.35c.25-.53.85-.85.84-1.53,1.08.18.33.94.27,1.3C36.18,40.81,35.62,40.55,35.18,40.35Z"/><path class="cls-10" d="M43,44.68c.36.43,0,.86,0,1.3.06,1.25,0,2.51,0,3.77,0,.28.08.58-.15.81,0-1.33,0-2.67,0-4a1.37,1.37,0,0,0-.1-.83C42.43,45.24,42.66,45,43,44.68Z"/><path class="cls-37" d="M55.05,32.77c-1.27.68-1.36,1.33-.34,2.25,0,.08.31,2.16.35,2.26.34.68.17,1.1-.82,1.78.63-.22.88,0,1,.44a3.58,3.58,0,0,1,0,2.1,2,2,0,0,0,0,1.33c-.27.73.42,1.25.39,1.93a4.35,4.35,0,0,0-.82,2.34c-.07.29.07.71-.49.39s-.83,0-1,.49a3.84,3.84,0,0,0-.11,2.12,4.4,4.4,0,0,1,0,2.44c-.45,1.23-.15,2.56-.18,3.84a.58.58,0,0,0,.23.43c.93.5.37,1.16,0,1.55a1.71,1.71,0,0,0-.45,1.3c0,.23,0,.46,0,.69,0,1.66-.14,1.77-1.73,1.39s-1.65-.4-2-2.25A7.79,7.79,0,0,1,49,58.15c.29.29.2.92.69,1a7.29,7.29,0,0,0,2.13.09,1,1,0,0,0,.85-1.2,20.51,20.51,0,0,0-.25-4.28,7.85,7.85,0,0,1,.08-1.86c0-2.45-.09-4.9-.08-7.35a11.08,11.08,0,0,0-.22-2.44c-.11-.51-.35-1,.09-1.54a.55.55,0,0,0,0-.5c-.81-1.4-.43-3-.57-4.47s-.19-3.2-.25-4.8c-.14-3.31-.43-6.62-.63-9.92-.06-.92,0-1.84,0-2.76.18-.43.5-.79.86-.36.81,1,1.77.57,2.66.39.51-.1.7,0,.65.47-.15,1.52.19,3.06-.11,4.58a.5.5,0,0,0,.3.62c-.64.39-1.27.78-1.92,1.15-.82.47-.35,1.09-.15,1.62s.67.21,1,.08.46-.19.68-.28a2.14,2.14,0,0,1,.46,1.84,32.17,32.17,0,0,0,0,3.4A1.92,1.92,0,0,1,55.05,32.77Z"/><path class="cls-38" d="M43.19,29.68c.49-2.44-.18-4.92.24-7.38.12-.73-.22-1.51.82-1.69,0,0,0,0,0-.06,0-1.66,1-.59,1.57-.57.11,0,.22,0,.33,0,.78,1.06.47,2.3.49,3.48,0,3.21,0,6.43,0,9.65,0,.62-.1,1.25-.15,1.87a27.63,27.63,0,0,1,.15,4.9c0,.77,0,1.54,0,2.32a2.86,2.86,0,0,1-.21,1.26,1.3,1.3,0,0,0,0,.93,5.77,5.77,0,0,1-.18,3.78,2.27,2.27,0,0,0-.07,1.1,32.12,32.12,0,0,1,0,3.8.87.87,0,0,1-1,.95c-.42,0-.6-.24-.69-.69-.44-2.2-.42-4.46-.72-6.67a5.14,5.14,0,0,1,0-1.3c.3-2.26-.26-4.49-.29-6.75,0-2-.27-4-.17-6a.68.68,0,0,0-.14-.57A6.57,6.57,0,0,1,43.19,29.68Z"/><path class="cls-39" d="M43.53,38.64a20.91,20.91,0,0,1,.41,3c0,.51.22.93.24,1.4a7.43,7.43,0,0,1-.08,2.05,8.34,8.34,0,0,0,.13,3.07c.17,1.5,0,3,.5,4.5a.92.92,0,0,1,.09.5c-.13.4-.16.67.38.67s.86,0,.83-.66A25.77,25.77,0,0,0,45.9,49a.91.91,0,0,1,0-.59,5.46,5.46,0,0,0,.23-4.25c-.05-.17-.15-.4-.09-.49.78-1,.29-2.19.38-3.3.13-1.78,0-3.55.08-5.33a2.92,2.92,0,0,1,.33,1.48c0,3.94,0,7.88,0,11.82a.9.9,0,0,0,0,1h0a.62.62,0,0,1,.11.56,1.71,1.71,0,0,0-.2.64c-.05,2.12-.41,4.23-.34,6.36,0,.5.11,1,.07,1.49-.08.29-.22.55-.53.56-.55,0-.6.36-.56.79s.12.92-.35,1-.71-.34-1-.68a1.18,1.18,0,0,1-.27-.88c.26-1.12-.22-2.18-.16-3.27a.58.58,0,0,0-.15-.39Z"/><path class="cls-12" d="M46.87,49.86v-.52c1-.24.91-.22.85.79-.08,1.42-.06,2.84,0,4.27A1.22,1.22,0,0,1,47,55.56c-.27-.25-.21-.59-.25-.91C46.81,53.06,46.7,51.46,46.87,49.86Z"/><path class="cls-40" d="M47,54.7v1.72c0,.59,0,1.18,0,1.77a1.4,1.4,0,0,1-.67,1.34c-.31-.34-.12-.69,0-1a6.76,6.76,0,0,1-.17-1.55c.19-.43,0-.89.1-1.33S46.41,54.67,47,54.7Z"/><path class="cls-41" d="M46.86,49.35c-.46-.35-.46-.69,0-1Z"/><path class="cls-2" d="M27.16,29.17c.77-1.45,1.17-3.06,1.87-4.53a18.19,18.19,0,0,1,4.87,1.15c.31.11.63.18,1,.27s.43-.33.5-.6,0-.48.34-.45c0,.35.2.57.32.85a1.43,1.43,0,0,1-.29,1.84,2.6,2.6,0,0,0-.29,2.67,1.42,1.42,0,0,1,.25.71,62.94,62.94,0,0,0-6.35-1.5A9,9,0,0,1,27.16,29.17Z"/><path class="cls-11" d="M35.69,25c-.26.2-.11.52-.22.77s-.23.61-.62.28c.52-.49.3-1.14.33-1.73C35.64,24.33,35.7,24.64,35.69,25Z"/><path class="cls-42" d="M31,23.13c-.59.46-1,.17-1.34-.35C30.11,23,30.62,22.8,31,23.13Z"/><path class="cls-4" d="M34.49,58.09a.4.4,0,0,1-.29.37,2.32,2.32,0,0,0-.47.13c-.29.14-.51.67-.89.26s.13-.68.24-1c.23-.59.71,0,1.08-.06A.25.25,0,0,1,34.49,58.09Z"/><path class="cls-21" d="M42.87,24.83A5.22,5.22,0,0,1,43,27.25,7.28,7.28,0,0,1,42.87,24.83Z"/><path class="cls-21" d="M43.19,29.68l0,2.38,0,.21a7.89,7.89,0,0,1-.14-2.61Z"/><path class="cls-21" d="M42.71,22.93c.43.54.07,1.16.15,1.74C42.54,24.11,42.76,23.51,42.71,22.93Z"/><path class="cls-43" d="M58.38,55.2a56.4,56.4,0,0,1,9.85-2.56c.4.57.19,1.22.23,1.84s0,1.08,0,1.63.2.75.7.74.62-.3.64-.73a8.8,8.8,0,0,0-.12-1.54,2.48,2.48,0,0,1,0-.77c0-.22.06-.49.33-.54s.36.21.43.43a4.92,4.92,0,0,1,.4,1.91c-.06.75.21,1.13.91,1.24a.77.77,0,0,1,.35.22,9.56,9.56,0,0,1,.1,3.73.84.84,0,0,1-1.14.7c-.91-.27-2,0-2.71-.86-.19-.22-.52,0-.79,0-.49.13-1,.48-1.51.24-.24,0-.5,0-.69-.2s-.27-.15-.43,0c-1.2,1.12-2.77,1-4.21,1.38-.14,0-.33-.08-.48,0-1.22.9-2.71,1.1-4,1.72a4.41,4.41,0,0,0-.14-2.07,8,8,0,0,1-.26-3.49,5.38,5.38,0,0,0-.26-2A5,5,0,0,1,58.38,55.2Z"/><path class="cls-44" d="M56.05,44.69a42.43,42.43,0,0,1,7.53-2.52,2.52,2.52,0,0,1,.48-.05A3.53,3.53,0,0,1,64.43,44c.12,2.17.34,4.34.46,6.51a1.06,1.06,0,0,1-.16.74c-.46.64-1.14.42-1.76.54a28.09,28.09,0,0,0-5.42,1.68c-.47.27-.86.75-1.49.51-.56-.45-.38-1.12-.42-1.7a1.9,1.9,0,0,0,0-.82c-.67-1.36-.33-2.76-.14-4.15a3.53,3.53,0,0,0,0-.92c-.05-.44,0-.9.55-1.05s.12-.34,0-.51-.07-.08,0-.12S56,44.69,56.05,44.69Z"/><path class="cls-45" d="M56.06,54l1.49-.51a5.36,5.36,0,0,0-.26.54c-.09.22-.36.45-.16.69s.39-.07.59-.12c.5-.13.47.36.66.59l-2.83,1.06c-.38.14-.81.37-1.09-.1a1.09,1.09,0,0,1,.09-1.46.39.39,0,0,1,.66-.18C55.49,54.33,55.9,54.4,56.06,54Z"/><path class="cls-22" d="M56.05,44.69c0,.06,0,.11,0,.17h-.33c-.26-.6-1-1.07-.49-1.89.27-.3.54-.6,1-.36A2,2,0,0,0,56.05,44.69Z"/><path class="cls-44" d="M55.21,54.52l-.66.18c-.25,0-.51.3-.74,0a.41.41,0,0,1,0-.47c.21-.32.55-.15.83-.18A.5.5,0,0,1,55.21,54.52Z"/><path class="cls-37" d="M55.15,52.55c-.12.16,0,.53-.33.51a.42.42,0,0,1-.38-.48.46.46,0,0,1,.47-.41C55.1,52.18,55.18,52.34,55.15,52.55Z"/><path class="cls-40" d="M43.53,55.56c.16.08.35.21.3.37a1.4,1.4,0,0,0,.41,1.52c.21.21,0,.42-.08.62a2.07,2.07,0,0,0,.36,2.22c.15.15.28.43.52.35s.12-.39.16-.6,0-.22,0-.34a3.32,3.32,0,0,1,1.17.17c0,1.05.23,2.17-.84,2.88a.29.29,0,0,0-.12.22,2.94,2.94,0,0,1-1.08,2.51,5.09,5.09,0,0,1-.62-2.18C43.49,60.72,43.51,58.14,43.53,55.56Z"/><path class="cls-41" d="M46.37,59.87c-.44.34-.8,0-1.17-.17,0-.55-.16-1.24.8-.91.08,0,.24-.19.37-.3v1.38Z"/><path class="cls-16" d="M61.72,13.62c1.06-.85,1.54-.39,1.77.67.07.35-.08.76.23,1.05a2.84,2.84,0,0,1-.22,1.47c-.15-.71-.33-1.42-.43-2.14C62.89,13.43,62.91,13.42,61.72,13.62Z"/><path class="cls-46" d="M66.06,60.91a8.92,8.92,0,0,0,1.61-.59.75.75,0,0,1,1.1.24c.26.51.65.54,1.11.53a2.43,2.43,0,0,1,.81.08c1.11.34,1.37.15,1.37-1.06,0-1,0-2,0-3-.13-.18-.18-.4.06-.49s.37.14.38.33c0,.65.35,1.21.44,1.84s.24.92.72,1.05.67-.32,1-.56.32-.93.84-.81.28.69.42,1.05c.25.64.68.87,1.57.8.43,0,.87-.29,1.28.07l-.17.86a19.85,19.85,0,0,1-5.3.57,18.09,18.09,0,0,0-2-.11,24,24,0,0,1-4-.56C66.91,61.11,66.34,61.6,66.06,60.91Z"/><path class="cls-47" d="M72.57,17.76c-.85.67-1.88.51-2.84.68,0-.79,0-1.59-.07-2.38,0-.55.35-.76.77-.86a.65.65,0,0,1,.85.49c.19,1.55.72.31,1.12.17A5.3,5.3,0,0,0,72.57,17.76Z"/><path class="cls-47" d="M69.39,18.6c-.52,0-1,.43-1.5.38a8.81,8.81,0,0,0-.14-2.05.94.94,0,0,1,.87-1.21c.66-.12.69.51.74.91A16.13,16.13,0,0,1,69.39,18.6Z"/><path class="cls-48" d="M78.74,60.39c-.49.06-1,.15-1.48.17-1.14,0-1.55-.33-1.69-1.49,0-.16.05-.35-.19-.51-.34.39-.47,1-1,1.26-.28.15-.53.57-.85.34s-.85-.51-.81-1.09c.05-.78-.64-1.4-.41-2.21,0,0-.11-.24-.22-.08s0,.22,0,.33a6.63,6.63,0,0,0-.89-.16c-.53,0-.68-.34-.58-.8.2-1-.27-1.83-.52-3A2.47,2.47,0,0,0,70,54.71,5,5,0,0,1,70.06,56c0,1.1-.09,1.17-1.12,1.14-.54,0-.73-.25-.72-.79,0-1.23,0-2.46,0-3.69a64.57,64.57,0,0,1,7-1.37,12.91,12.91,0,0,1,.39,3.28,7.05,7.05,0,0,0,1,3.5c.17.24.24.62.63.58a1.16,1.16,0,0,0,.91-.68,3,3,0,0,0,.22-1c0-.3,0-.64.24-.88.62.49.36,1.2.28,1.75A24.69,24.69,0,0,0,78.74,60.39Z"/><path class="cls-49" d="M78.58,56.07a14.83,14.83,0,0,1-.1,1.62c-.13.74-.65,1-1.2,1.27a.47.47,0,0,1-.65-.21,7.76,7.76,0,0,1-1.21-3.64,35.14,35.14,0,0,1-.19-3.84,14.28,14.28,0,0,1,3.18-.53C78.31,52.52,78.69,54.29,78.58,56.07Z"/><path class="cls-13" d="M66.22,41.6l1.66-.22c0,1.83.23,3.65.07,5.51a7,7,0,0,0,.45,3.66c-.3.3-.67.15-1,.16-.14-.22-.15-.57-.52-.6-.6,0-.7-.49-.7-1,0-2.16-.28-4.3-.18-6.46A1.84,1.84,0,0,1,66.22,41.6Z"/><path class="cls-50" d="M71.72,50c-.16.44-.13,1.1-.91.5-.29-.23-.83-.11-1.26-.14A5.2,5.2,0,0,1,71.72,50Z"/><path class="cls-51" d="M73.07,28.12a17.73,17.73,0,0,1-3.14.59L63.22,30a.46.46,0,0,1-.17-.28c-.17-2.11-.54-4.2-.6-6.32a1,1,0,0,1,.08-.33,27.38,27.38,0,0,1,3.79-1.4,44.33,44.33,0,0,1,6.26-1.82.75.75,0,0,1,.38.71c.08,2.19.33,4.38.36,6.58A1.35,1.35,0,0,1,73.07,28.12Z"/><path class="cls-43" d="M62.53,23.08a5.07,5.07,0,0,1,.3,2.18A30.24,30.24,0,0,1,63.22,30a21.5,21.5,0,0,0-2.52.75c-1.84.8-3.85,1.08-5.65,2,0-1.77,0-3.54,0-5.31a8.08,8.08,0,0,0-.17-1.08A33.9,33.9,0,0,1,62.53,23.08Z"/><path class="cls-3" d="M73.07,28.12c.06-2.6-.35-5.18-.35-7.78a1.74,1.74,0,0,0-.14-.48l1.65-.35c-.12,2.82.54,5.65-.15,8.46C73.77,28.23,73.41,28.09,73.07,28.12Z"/><path class="cls-42" d="M56.21,42.61l-1,.36A1.07,1.07,0,0,1,55,41.72a3.15,3.15,0,0,0,0-2.34c-.25-.77-.66.19-1,0a.62.62,0,0,1,.36-.66c.83-.53.91-.91.32-1.66-.75-1-.75-1,0-2a53.42,53.42,0,0,1,8.2-2.85,2,2,0,0,1,.49-.06,2.1,2.1,0,0,1,.4,1.52c0,1.82.17,3.63.3,5.45a1.28,1.28,0,0,1-.21,1c-2.32.8-4.78,1.15-7,2.2A1.6,1.6,0,0,0,56.21,42.61Z"/><path class="cls-8" d="M76.73,38.11l-4.49.36c-1,.16-1.29,0-1.43-1a15.77,15.77,0,0,1-.24-4.6c.12-.77-.32-1.46-.21-2.21a58.42,58.42,0,0,1,5.87-1,1,1,0,0,1,.25.7c.07,2.28.27,4.55.47,6.83A1,1,0,0,1,76.73,38.11Z"/><path class="cls-17" d="M70.36,30.68a4.48,4.48,0,0,1,.43,2.44A16.57,16.57,0,0,0,71.13,38c.08.57.66.49,1.11.49l-4.51.85a1,1,0,0,1-.29-.93,41.65,41.65,0,0,0-.33-6.51.83.83,0,0,1,.12-.65A11.49,11.49,0,0,1,70.36,30.68Z"/><path class="cls-51" d="M63.89,40.05c-.16-2.65-.33-5.3-.49-7.94a10.21,10.21,0,0,1,2.82-.69,1.31,1.31,0,0,1,.27,1c0,2,0,4,0,6a1.64,1.64,0,0,1-.25,1.06l-1.17.33c-.23.09-.42.31-.7.19Z"/><path class="cls-52" d="M66.24,39.54q0-4,0-8.12a1.33,1.33,0,0,1,1-.19,29.32,29.32,0,0,1,.38,7.6,1.84,1.84,0,0,0,.12.49A5.77,5.77,0,0,1,66.24,39.54Z"/><path class="cls-53" d="M76.73,38.11c-.16-2-.33-4-.47-5.93-.06-.83,0-1.66,0-2.48.4,0,.76-.31,1.18-.18.11,2.53-.22,5.06-.17,7.6a1.76,1.76,0,0,0,.16,1Z"/><path class="cls-10" d="M66.22,41.6c-.09,2.56.15,5.1.17,7.65,0,.4-.1.75.62.55s.58.45.38.91a13.41,13.41,0,0,1-2.66.57q-.44-4.58-.67-9.16Z"/><path class="cls-12" d="M64.37,40.06a.88.88,0,0,1,.7-.19l-.15.3c-.07.16,0,.47-.22.46S64.4,40.31,64.37,40.06Z"/><path class="cls-41" d="M47,54.7a1.42,1.42,0,0,0-.67,1.36c0,.29.12.63-.16.88a30.94,30.94,0,0,1,.29-4.61,10.14,10.14,0,0,0,0-1.75c0-.3,0-.57.34-.72.34.46.14,1,.16,1.49C47.06,52.47,47,53.58,47,54.7Z"/></g></g></svg>