<svg xmlns="http://www.w3.org/2000/svg" viewBox="0 0 86.68 99.16"><defs><style>.cls-1{fill:#bfebce;}.cls-2{fill:#afafaf;}.cls-3{fill:#5aaf9e;}.cls-4{fill:#5baf9f;}.cls-5{fill:#b2b2b2;}.cls-6{fill:#5cb0a0;}.cls-7{fill:#5db1a1;}.cls-8{fill:#5bb0a0;}.cls-9{fill:#70baac;}.cls-10{fill:#86c4b8;}.cls-11{fill:#77bdb0;}.cls-12{fill:#86c5b9;}.cls-13{fill:#7abfb1;}.cls-14{fill:#c3c3c3;}.cls-15{fill:#7cc0b3;}.cls-16{fill:#76bdaf;}.cls-17{fill:#7dc0b3;}.cls-18{fill:#78beb1;}.cls-19{fill:#94cbc0;}.cls-20{fill:#9ccfc5;}.cls-21{fill:#9ed0c6;}.cls-22{fill:#a4d3ca;}.cls-23{fill:#7ec1b4;}.cls-24{fill:#7abfb2;}.cls-25{fill:#85c4b8;}.cls-26{fill:#89c6ba;}.cls-27{fill:#8e8e8e;}.cls-28{fill:#717171;}.cls-29{fill:#a5a5a5;}.cls-30{fill:#dbdbdb;}.cls-31{fill:#a9a9a9;}.cls-32{fill:#616161;}.cls-33{fill:#f0f0f0;}.cls-34{fill:#cfcfcf;}.cls-35{fill:#f7f7f7;}.cls-36{fill:#f9f9f9;}.cls-37{fill:#a6a6a6;}.cls-38{fill:#ebebeb;}.cls-39{fill:#8f8f8f;}.cls-40{fill:gray;}.cls-41{fill:#fdfdfd;}.cls-42{fill:#cbcbcb;}.cls-43{fill:#e9e9e9;}.cls-44{fill:#d6d6d6;}.cls-45{fill:#e4e4e4;}.cls-46{fill:#7a7a7a;}.cls-47{fill:silver;}.cls-48{fill:#9c9c9c;}.cls-49{fill:#919191;}.cls-50{fill:#e3e3e3;}.cls-51{fill:#8c8c8c;}.cls-52{fill:#d0d0d0;}.cls-53{fill:#e0e0e0;}.cls-54{fill:#d4d4d4;}.cls-55{fill:#c7c7c7;}.cls-56{fill:#bebebe;}.cls-57{fill:#59ae9e;}.cls-58{fill:#7cb9ad;}.cls-59{fill:#b6b6b6;}.cls-60{fill:#979797;}.cls-61{fill:#c5c5c5;}</style></defs><g id="Layer_2" data-name="Layer 2"><g id="fotos"><circle class="cls-1" cx="45.65" cy="58.13" r="41.03"/><path class="cls-2" d="M32,32.93a1.27,1.27,0,0,0,.77-.43,5,5,0,0,1,3.76-1.26c2.2.13,4.41,0,6.62,0a1.88,1.88,0,0,1,.24,1.91c-.24.28-.54.19-.84.16a20.83,20.83,0,0,0-2.62-.05c-.14,0-.31,0-.41.2a9.55,9.55,0,0,0,1.74.28c.37,0,.92-.11.91.49s-.49.65-.94.66-.68.11-.77.55,0,.83.55.93a3.22,3.22,0,0,1,.87.19,2.24,2.24,0,0,1,.61,1.7.52.52,0,0,0,.45.65c.44.09.63.41.8.8a3.54,3.54,0,0,0,1.87,2,.79.79,0,0,1,.3,1,3.15,3.15,0,0,1-2.7.06c-1-.32-1.88-.77-1.88-2a.57.57,0,0,0-.12-.35A1.78,1.78,0,0,1,41.06,38c.23-.29-.09-.48-.36-.6a21.22,21.22,0,0,1-2.27-1.18,1.2,1.2,0,0,1-.75-1,.61.61,0,0,0-.34-.56A.79.79,0,0,1,36.9,34a.56.56,0,0,0-.34-.47c-.24-.1-.48-.37-.76-.2s-.17.45-.17.69c0,1.43,0,2.87,0,4.3,0,.61-.39,1.22,0,1.84.14,1.9,0,3.81.06,5.71a16.78,16.78,0,0,0,.13,1.73.77.77,0,0,0,.75.77c2.95.42,5.91.81,8.88,1.07.68.05,1.35.17,2,.17,1.76.27,3.54.24,5.29.47,1.46.25,3,0,4.4.28.68.13.76-.33.88-.79a7.79,7.79,0,0,0,.81-1.32c1.12-1.48,2-3.14,3.15-4.59.57-.58.68-1.49,1.39-2a12.19,12.19,0,0,0,1.32-2.08,4.62,4.62,0,0,1,1.53-1.81.78.78,0,0,0,.37-1.14c.61-.95.49-2.33,1.68-2.93-.57,0-1.18,0-1.8,0a21.24,21.24,0,0,1-3.29-.08c-.11-.06-.23-.15-.19-.29a3.35,3.35,0,0,1,.8-1.81,9.58,9.58,0,0,1,2.4.07c.73.2,1.54-.18,2.08.19a5.63,5.63,0,0,0,1.67.69,1.25,1.25,0,0,0,1-.16c1.09-.51,1.4-.31,1.77.57a46.64,46.64,0,0,1,2.08,7.23c.39,1.67.75,3.35,1.16,5a9.18,9.18,0,0,1,.06,2,.36.36,0,0,1-.3.37C74.39,48,74,49.24,73,50c-.17.15-.09.43-.09.66,0,3.84.08,7.68,0,11.53-.07,2.52-.13,5-.29,7.56-.08,1.23-.22,2.45-.21,3.68A3.08,3.08,0,0,1,72,74.64a67.43,67.43,0,0,1-7.22,11.17c-1.05,1.39-2.15,2.75-3.22,4.13-.06.08-.15.16-.16.25,0,.88-.52.92-1.17.61-.27-.13-.34,0-.4.24-.19.7-.64.82-1.27.57a9.72,9.72,0,0,0-3-.47,71.49,71.49,0,0,1-10.11-1.41A143.37,143.37,0,0,1,29,85.27c-2.49-.84-4.91-1.86-7.36-2.8-.16-.06-.39-.16-.42-.28-.26-1.3-1-2.5-.88-3.88a12.34,12.34,0,0,0,0-1.36c.12-1.2,0-2.41,0-3.61a2.2,2.2,0,0,0-.3-1.06c-.1-2.35-.19-4.71-.32-7.06-.16-2.94-.49-5.87-.94-8.79a1.21,1.21,0,0,0-1.18-1.2c-.48-.09-.59-.39-.49-.83a1.17,1.17,0,0,0-.15-1,1.46,1.46,0,0,1-.07-1c.25-2.36.69-4.7.13-7.07a.53.53,0,0,1,.18-.54,54.42,54.42,0,0,1,4.26-3.63c2.72-2.14,5.39-4.37,8.2-6.41a2.44,2.44,0,0,1,.7,1.77c-1.29,1.07-2.57,2.14-3.89,3.17-2.24,1.76-4.55,3.44-6.82,5.48a1.27,1.27,0,0,1,1.22.06A23.21,23.21,0,0,0,27.1,47c1.91.31,3.81.66,5.72.9.74.09.78.06.73-.69s-.09-1.8-.12-2.7a1.92,1.92,0,0,1,.26-1.15,1.56,1.56,0,0,0,.36-1.25,24.35,24.35,0,0,0-1.94-8.36C32,33.46,31.84,33.22,32,32.93Z"/><path class="cls-3" d="M63.77,31.57l-.74,2c.2.37,0,.67-.15,1-.21.53-.37,1.09-.56,1.62-.11.33-.23.65-.32,1-.63,2.12-1.26,4.23-1.77,6.38,0,.16,0,.32-.07.48a22.09,22.09,0,0,1-1.22,4.31c-.26.39-.26.94-.72,1.21a3.37,3.37,0,0,1-1.74-.33.74.74,0,0,1-.49-.9c.07-.55.28-1.07.39-1.61a5.4,5.4,0,0,0,.14-.82c.51-2.15.91-4.34,1.58-6.45a5.76,5.76,0,0,1,.19-.68,6.31,6.31,0,0,1,.58-1.57c.24-.22.65-.06.85-.47s0-.86-.3-1.22A3.23,3.23,0,0,1,60,33.69c.23-.37.17-.81.32-1.2a1.85,1.85,0,0,1,.59-.91A56.22,56.22,0,0,1,66,21.28c1.16-1.8,2.36-3.57,3.69-5.25A53.11,53.11,0,0,1,75.67,9.7,51.62,51.62,0,0,1,82,4.89l.42-.3c1.46,0,2.13.48,2.27,1.66a13.55,13.55,0,0,1-2.81,2.06,42.89,42.89,0,0,0-8.26,7.3,52,52,0,0,0-9.55,15.23C64,31.09,63.88,31.33,63.77,31.57Z"/><path class="cls-4" d="M30.29,36.55l-.6-1.82a39.48,39.48,0,0,0-1.83-4,3.07,3.07,0,0,1,.05-.74c.13-.88-.15-1.19-1-1.17a.32.32,0,0,1-.2-.08c-1.43-2.12-2.83-4.27-4.46-6.25-.9-1.1-1.81-2.18-2.72-3.27-.19-.23-.46-.39-.52-.72,0-.78-.64-1-1.19-1.22-.89-.87-1.79-1.73-2.67-2.61-1.11-1.11-2.34-2.09-3.53-3.11,0-.31-.18-.45-.48-.55a2.32,2.32,0,0,1-.72-.36A9.25,9.25,0,0,1,8.11,9,1.68,1.68,0,0,1,10,7.15l.46.29c.27.46.44,1.08,1.2.75a25.29,25.29,0,0,1,3.21,2.43,69.12,69.12,0,0,1,6,5.88c-.35.57,0,1,.41,1.24a2.05,2.05,0,0,1,1,1.23.51.51,0,0,0,.55.41,1.47,1.47,0,0,1,.75.28l1.67,2.11A3.4,3.4,0,0,0,27,24.19a42.83,42.83,0,0,1,5,8.74,24.53,24.53,0,0,1,2.32,9.47c0,.29.18.93-.53.93a3.49,3.49,0,0,1-2.09.25.92.92,0,0,1-.37-.85,20.26,20.26,0,0,0-1-5.45A1.22,1.22,0,0,1,30.29,36.55Z"/><path class="cls-5" d="M60.91,31.58a13.2,13.2,0,0,0-.74,2.11c-4.27-.31-8.54-.2-12.81-.22a1.73,1.73,0,0,1-1.23-.24c-.26-.63-.06-1.33-.29-2C50.86,31.37,55.89,31.33,60.91,31.58Z"/><path class="cls-6" d="M1.12,18.61a31.16,31.16,0,0,1,4.1,1.18,26.44,26.44,0,0,1,3.62,1.58c.81.46.92.73.52,1.56-.13.27-.31.51-.44.78A.56.56,0,0,1,8,24,38.65,38.65,0,0,0,.48,21c-.29-.09-.5-.22-.48-.56.05-.61.48-1.09.53-1.71C.55,18.55.88,18.65,1.12,18.61Z"/><path class="cls-7" d="M63.3,4a27.19,27.19,0,0,1,5-3.62,1.74,1.74,0,0,1,2.08,1.35c0,.26-.13.42-.28.59a59.58,59.58,0,0,0-6.16,4.54.26.26,0,0,0-.15,0c-.31.1-.5.59-.9.35a2.55,2.55,0,0,1-1-1.26c-.16-.39.2-.55.51-.69C62.91,5,63.42,4.72,63.3,4Z"/><path class="cls-8" d="M82.92,18.48h.29c.4.23.87.08,1.3.25.27.11.51.17.59.48a.58.58,0,0,1-.29.71A1.78,1.78,0,0,0,84,21.15a10.89,10.89,0,0,0-4.06.18,1.67,1.67,0,0,1-.86.06,2.12,2.12,0,0,0-1.55.52,2.48,2.48,0,0,1-1,.33A1.67,1.67,0,0,1,75.83,20a17,17,0,0,1,3.16-1c.41.15.81.4,1.19-.1.13-.17.43,0,.65,0C81.55,18.86,82.3,19,82.92,18.48Z"/><path class="cls-9" d="M38.42,26.92c.17-.1.36-.19.52-.3s.52-.28.76-.08,0,.41-.06.61c-.23.41.07.5.36.49.8,0,1.31.15,1.23,1.13,0,.42.69.47.68,1A10.6,10.6,0,0,1,38.42,26.92Z"/><path class="cls-10" d="M49.92,25.38a6.56,6.56,0,0,1-1.76-1.56.44.44,0,0,0-.31-.18c-.82.11-1.74-.22-2.4.55a.89.89,0,0,1-1.13.3,3.35,3.35,0,0,1,3.42-1.32A2.76,2.76,0,0,1,49.92,25.38Z"/><path class="cls-11" d="M23.52,19.66c-.34.06-.64-.21-1-.06s-.38-.22-.43-.42a1.71,1.71,0,0,0-1-1.25c-.81-.41-.87-1-.28-1.43A40.81,40.81,0,0,1,23.52,19.66Z"/><path class="cls-12" d="M63.3,4c.38.43.21.89-.47,1.29-.28.17-.81.06-.84.49s.36.79.67,1.12.61.3.79-.14c.06-.13,0-.34.26-.26s.2.21.21.36c-.86.81-1,.8-1.66-.09-.8-1-.8-1.14.17-2.07C62.7,4.42,63,4.21,63.3,4Z"/><path class="cls-13" d="M84,21.15c-.18-.56-.14-1,.52-1.21.22-.07.57-.25.53-.64s-.51-.32-.76-.48-.83.21-1-.33l.3,0c.59,0,1.25,0,1.61.56s0,1.37-.23,2S84.28,21.15,84,21.15Z"/><path class="cls-14" d="M20.07,72.28a1.16,1.16,0,0,1,.49,1.28c-.18,1,.17,2,0,2.92,0,.17,0,.36-.17.47a2.11,2.11,0,0,1-.12-.43Z"/><path class="cls-13" d="M82.92,18.48a.68.68,0,0,1-.82.58A4.82,4.82,0,0,1,80.54,19a.36.36,0,0,0-.42.06c-.42.53-.77.23-1.13-.08,1.06,0,2-.57,3.11-.47A7.48,7.48,0,0,0,82.92,18.48Z"/><path class="cls-15" d="M26.68,28.71c.31,0,.54-.51.93-.07s.72.75.48,1.36a5.73,5.73,0,0,0-.23.7A11.1,11.1,0,0,0,26.68,28.71Z"/><path class="cls-16" d="M35.46,21.77a1.46,1.46,0,0,1,1.34.86c.41.64-.36.72-.47,1.11A14.94,14.94,0,0,1,35.46,21.77Z"/><path class="cls-17" d="M27,24.19A3.15,3.15,0,0,1,25,22.08a.33.33,0,0,1,.16-.31Z"/><path class="cls-18" d="M40.26,24.93c-.6,0-1.29.24-1.48-.67-.08-.43.35-.72.26-1.13Z"/><path class="cls-19" d="M84.73,6.25c-.11-.37-.52-.56-.55-1,0-.19-.31-.43-.5-.35-.52.24-.82-.2-1.22-.3.36-.17.64-.72,1.12-.24S84.93,5.26,84.73,6.25Z"/><path class="cls-20" d="M70.08,2.3c.32-1-.46-1.82-1.8-1.94.92-.59,1.35-.47,1.8.48a3,3,0,0,0,.29.6C70.68,1.88,70.5,2.12,70.08,2.3Z"/><path class="cls-21" d="M75.83,20a2.58,2.58,0,0,0,.61,2.27c-.17.23-.29.06-.42,0-.55-.45-.56-1.13-.72-1.73C75.23,20.17,75.53,20,75.83,20Z"/><path class="cls-22" d="M10,7.15c-1.13.1-1.55.9-1.84,1.83-.07-.07-.2-.14-.2-.21,0-.73.55-1.18,1-1.66S9.6,6.87,10,7.15Z"/><path class="cls-23" d="M77.49,21.91c.2-.76.84-.73,1.4-.68.33,0,.67.08,1,.1Z"/><path class="cls-24" d="M43.43,26.45c.35.16,1-.41,1,.25,0,.34-.7.51-1.19.51A1,1,0,0,1,43.43,26.45Z"/><path class="cls-23" d="M11.61,8.19a.51.51,0,0,1-.75.27.94.94,0,0,1-.45-1A4.56,4.56,0,0,1,11.61,8.19Z"/><path class="cls-10" d="M17.79,17.25c.41-.13.77.14,1.11.25s0,.64.08,1C18.59,18.06,18.19,17.66,17.79,17.25Z"/><path class="cls-25" d="M47,30.64c-.05-.78.48-1.05,1.39-.71A2.93,2.93,0,0,1,47,30.64Z"/><path class="cls-26" d="M10.39,10.62c.4.1.81.18,1.2.31s0,.4,0,.6Z"/><path class="cls-27" d="M21,56.15c2.14.49,4.26,1.1,6.42,1.43,2.5.38,4.92,1.11,7.4,1.56,2.71.49,5.38,1.24,8.12,1.63,1.47.21,3,.33,4.45.5l4.53.53,5.34.62a.3.3,0,0,0,.26-.09c.59-.83,1.72-1.24,1.85-2.43.16,1.66-.2,3.29,0,4.89.13,1.28-.14,2.58.32,3.85.14.39-.29.9-.24,1.42.22,2.3.19,4.63.23,6.93,0,1.06.47,2.15,0,3.22-.1.24.08.58.08.88q0,3.91,0,7.83c0,.2,0,.41-.16.55-.39.32-.78.12-1.18,0a101.65,101.65,0,0,1-14-1.9A162.1,162.1,0,0,1,27.88,83c-1.73-.58-3.41-1.3-5.12-1.94a.63.63,0,0,1-.46-.67c0-2.63-.24-5.25-.33-7.87-.07-2.29-.13-4.59-.29-6.88-.18-2.61-.49-5.21-.75-7.81C20.93,57.24,20.65,56.69,21,56.15Z"/><path class="cls-28" d="M71.17,55.4a3.05,3.05,0,0,1,.06,1.41,17.56,17.56,0,0,0,0,2.81c-.12,2.16-.13,4.31-.18,6.47-.22.53.13,1,.1,1.54a3.23,3.23,0,0,1-.28,1.65A2.67,2.67,0,0,1,69.75,69a.7.7,0,0,0-1,.31,1.39,1.39,0,0,1-1.27.76,1.69,1.69,0,0,0-1.59,1.19c-.84,2.54-1.86,5-1.36,7.81a1.88,1.88,0,0,1,0,.53c0,.33-.26.75.15,1s.57-.2.8-.42A.81.81,0,0,1,66.6,80a62.13,62.13,0,0,1-5,6.71c0-.88-.18-1.7-.14-2.57a70.91,70.91,0,0,0,0-7.29c-.11-1.88,0-3.76-.14-5.63-.24-2.75-.07-5.49-.11-8.24.41-1.54,1.54-2.65,2.35-3.95a1.07,1.07,0,0,1,.36-.27,83.88,83.88,0,0,0,7.25-6.55c.18.49-.19.91.14,1.25A5.29,5.29,0,0,1,71.17,55.4Z"/><path class="cls-29" d="M58.32,39.41c-.62,2-1,4-1.49,6.06a3,3,0,0,1-.15.42A6.44,6.44,0,0,1,53.93,47c-3.37,0-6.71-.35-10.06-.63a1.46,1.46,0,0,1-1.36-.91.87.87,0,0,0-.23-.38c-1.44-1.18-2.14-3.06-3.83-4a2.2,2.2,0,0,0-2.66-1,.79.79,0,0,1-.37,0c-.18-.16-.35-.38-.26-.59.54-1.15.15-2.36.26-3.54,0-.5,0-1,0-1.51,0-1.57,0-1.57,1.42-1l.2.08c-.38.92,1.23,1,.83,2-.09.22.24.39.46.52A16,16,0,0,0,41,37.32c.4.14.52.36.29.74-.11.16-.18.36-.3.51a.74.74,0,0,0,0,1.12,2.41,2.41,0,0,1,.59,1.51,1.11,1.11,0,0,0,.71,1,5,5,0,0,0,3.54.52c.49.69.68,1.54,1.16,2.24,1,1.38,1.15,1.46,2.57.69.84-.46.89-.54.29-1.3a7.89,7.89,0,0,1-1.31-2.24.89.89,0,0,1,.42-.3c1.26-.25,2.44-.76,3.68-1.09a10.5,10.5,0,0,1,2.24.14,1.81,1.81,0,0,0,1.8-1C57.17,39.14,57.5,39.06,58.32,39.41Z"/><path class="cls-30" d="M60.31,50.71c-.35,0-.8.15-.34-.51C61,48.69,62,47.13,63,45.59a.29.29,0,0,1,.28-.06A1.44,1.44,0,0,0,65.09,45c1.56-1.8,3.1-3.61,4.53-5.52.2-.26.35-.71.77-.61s.36.56.42.89c.27,1.47.67,2.91.83,4.4a1.93,1.93,0,0,0,1.28,1.34c.16,0,.35,0,.49.13a1.6,1.6,0,0,1-.76,1.95.37.37,0,0,0-.41.07,35.88,35.88,0,0,1-3.67,2.72,38.68,38.68,0,0,0-3.23,2.92c-.63.56-.75.57-1.2-.13s-1-1.66-1.62-2.44a4,4,0,0,0-.54-.62c-.59-.49-.59-.5-1,.14A2,2,0,0,1,60.31,50.71Z"/><path class="cls-31" d="M30.29,36.55a18.37,18.37,0,0,1,1.21,5.91,1.94,1.94,0,0,0,.16,1c.12.48-.2.75-.49,1A13.85,13.85,0,0,1,27,47.1a22.29,22.29,0,0,1-5.9-1.58c-.46-.22-.9-.62-1.44-.13a.27.27,0,0,1-.26,0c-.12-.12,0-.25.08-.31.61-.4,1-1,1.61-1.46,2.31-1.79,4.65-3.53,6.94-5.34A11.06,11.06,0,0,1,30.29,36.55Z"/><path class="cls-27" d="M35.42,40a11.77,11.77,0,0,1,2-.29.36.36,0,0,1,.44.31A2.19,2.19,0,0,0,39,41.24a6.88,6.88,0,0,1,2.22,2.48,1.71,1.71,0,0,0,.66.7,1.53,1.53,0,0,1,.82.94c.19.64.7.78,1.26.83,1,.11,2.08.25,3.13.3,2.3.09,4.58.39,6.89.31a1.22,1.22,0,0,1-1.39.57,5.39,5.39,0,0,0-1.92,0,13.94,13.94,0,0,1-3.35-.31,12.19,12.19,0,0,0-3.26.27c-.34,0-.41.25-.23.54a1.34,1.34,0,0,0,1.13.63c.65,0,1.29.14,1.94.2s.84.38.6,1.08a53.86,53.86,0,0,1-5.81-.55c-1.73-.22-3.46-.45-5.19-.64-.6-.07-.88-.22-1-.93C35.3,45.13,35.51,42.57,35.42,40Z"/><path class="cls-32" d="M66.6,80a1.11,1.11,0,0,0-1.2.53.73.73,0,0,1-.92.33c-.39-.17-.33-.6-.23-.87a2.87,2.87,0,0,0,0-1.54,10.88,10.88,0,0,1,.55-4.32c.21-.9.54-1.77.82-2.65a2,2,0,0,1,2.2-1.58c.44,0,.59-.32.75-.63.28-.55.67-.86,1.25-.41.28.22.81-.08.93.45a4.33,4.33,0,0,1,0,2.71,4.31,4.31,0,0,1-.66,2.49c-.82,1.24-1.47,2.61-2.2,3.92C67.51,79,66.87,79.32,66.6,80Z"/><path class="cls-33" d="M73.41,45.59a1.61,1.61,0,0,1-1.9-1.83.49.49,0,0,0,0-.21,33.37,33.37,0,0,1-.92-4.22c0-.16,0-.38-.23-.41s-.21.18-.29.3c-1.52,2-3.16,3.93-4.79,5.86a1.63,1.63,0,0,1-2.22.51c2.29-3.44,4.59-6.88,6.87-10.32a1.8,1.8,0,0,1,.44-.51c.65-.44.92-.36,1.09.41.72,3.18,1.42,6.37,2.12,9.56A1.05,1.05,0,0,1,73.41,45.59Z"/><path class="cls-34" d="M55.34,60.21h-.47c-.27-.3-.66-.25-1-.27a18.19,18.19,0,0,1-2.44-.37,4.75,4.75,0,0,0-1.64-.11c-.58.09-1.06-.26-1.6-.35-1.48-.25-3-.63-4.44-.77A75.27,75.27,0,0,1,35.87,57c-3.84-.88-7.65-1.83-11.48-2.74-.28-.07-.61-.1-.77-.4.06-.51.45-.41.74-.35a14.44,14.44,0,0,1,2.11.52,7.76,7.76,0,0,0,2.74.41,37.81,37.81,0,0,1,4.51.72c1,.13,1.89.53,2.86,0,.26-.13.54.05.75.24a3.67,3.67,0,0,0,1.09.65,1,1,0,0,0,1.34-.27,1,1,0,0,1,1.07-.39c.29,0,.53.17.56.5s-.29.31-.65.47c.73,0,1.35.39,1.79-.36.11-.18.41-.14.64-.1a11.68,11.68,0,0,0,1.18.22.75.75,0,0,1,.61.49c.39.85,1.12.91,1.61.14.25-.38.51-.47.87-.22a.67.67,0,0,0,1-.1.83.83,0,0,1,.18-.13c.4-.22.83-.5,1.23-.09s.11.78-.12,1.15a.64.64,0,0,0-.17.63,3.79,3.79,0,0,1,3.28-.7h.37c1.56.06,1.68.17,1.95,1.63a6.46,6.46,0,0,0,.36.81A.45.45,0,0,1,55.34,60.21Z"/><path class="cls-35" d="M23.66,53.74c1.92.5,3.84,1,5.76,1.48,2.15.53,4.3,1,6.46,1.53.2.26.79.2.6.77-2.39-.48-4.77-1-7.17-1.42-3.42-.63-6.8-1.5-10.21-2.21-.39-.08-.5-.17-.45-.62.21-1.81.36-3.63.49-5.44,0-.46.09-.58.61-.46,2.66.62,5.33,1.23,8,1.75,2.39.47,4.79.87,7.21,1.16.15.27,0,.37-.23.44a1.9,1.9,0,0,1-1,.15c-1.05-.24-2.14-.19-3.19-.5a45.44,45.44,0,0,0-5.7-.93,25.28,25.28,0,0,0-2.6-.32c-.93-.16-1.85-.34-2.66-.45.25-.06.57.2.93.16.64-.07.8.31.74.82A17.2,17.2,0,0,1,21,52c0,.19,0,.39-.06.58,0,.46.34.4.59.5A9,9,0,0,1,23.66,53.74Z"/><path class="cls-36" d="M60.31,50.71c.2-.43.72-.64.71-1.26,0-.35.35-.06.5,0A7.81,7.81,0,0,1,63.6,51.9c.23.32.41.68.63,1,.47.72.45.7,1.11.09a27.22,27.22,0,0,1,3.46-3.09,25.32,25.32,0,0,0,3.33-2.49c.24-.22.4-.13.52.12a25.51,25.51,0,0,1-1.77,2.1c-1.21,1.53-2.83,2.65-4,4.21a4.38,4.38,0,0,1-1.14.8,2.91,2.91,0,0,0-1.15.78,1,1,0,0,1-1.14.28,31.36,31.36,0,0,1-2.39-3c.24-.61.56-1.22,0-1.82Z"/><path class="cls-37" d="M60,43.48,61.82,37a2.14,2.14,0,0,1,1.65-.54c.77,0,1.54,0,2.31,0a1.13,1.13,0,0,1,.85.22.44.44,0,0,1,.13.82c-1.52,1-2.17,2.66-3.06,4.14,0,.08-.15.12-.24.17-.4-.13-.49.25-.69.43A5.49,5.49,0,0,1,60,43.48Z"/><path class="cls-38" d="M22.31,48.91c1.33.17,2.65.39,4,.48a20.34,20.34,0,0,0,3.2.43c.47,0,.83.27,1.27.36a13.26,13.26,0,0,0,3.76.39c.21,0,.41,0,.44-.29,1.6.22,3.2.51,4.82.6a.64.64,0,0,0,.59.37,39.79,39.79,0,0,1,4.75.47,10,10,0,0,0,1.34.05,1.68,1.68,0,0,1,1.39.88c.23.3,0,.51-.26.63a3.72,3.72,0,0,1-.74.08c-2.28-.11-4.53-.5-6.79-.79C38,52.3,36,52,34,51.64c-2.84-.54-5.68-1-8.51-1.62-.89-.18-1.76-.44-2.63-.69C22.62,49.27,22.32,49.26,22.31,48.91Z"/><path class="cls-28" d="M56.53,46.65a7.41,7.41,0,0,1-.35,1.67c-.07.47.09.64.49.74s1,.31,1.55.46c-.25.32-.23.64.19,1.11-2-.27-3.84-.09-5.65-.37-1.09-.78-2.41-.73-3.65-1-.14,0-.3,0-.45,0s-.47-.08-.51-.36.21-.44.46-.5c1-.22,1.92-.53,2.89-.77.2,0,.37-.15.57-.2a9.49,9.49,0,0,1,1.85-.07,3.12,3.12,0,0,0,1.64-.43C55.87,46.79,56.15,46.52,56.53,46.65Z"/><path class="cls-39" d="M27,47.1a.93.93,0,0,1,.6-.53,11.88,11.88,0,0,0,3.6-2.34,2.45,2.45,0,0,0,.46-.76,21,21,0,0,1,2.1-.14,16.21,16.21,0,0,0,.05,4.29c.06.71-.31.57-.63.52-1.43-.21-2.86-.44-4.28-.68A10.12,10.12,0,0,1,27,47.1Z"/><path class="cls-40" d="M52.16,47.55a20.62,20.62,0,0,1-3.44,1c-.17.05-.47,0-.43.28s.32.19.5.2a27,27,0,0,1,3.1.47,1.12,1.12,0,0,1,.87.73c-1,0-2.1-.09-3.15-.18-.71-.06-1.42-.18-2.12-.27.09-.67-.17-1-.88-.92a15.66,15.66,0,0,1-1.93-.14,1.49,1.49,0,0,1-1.23-1c-.24-.52.19-.58.63-.68a15.79,15.79,0,0,1,6.05.16,4.51,4.51,0,0,0,.52,0C51.17,47.27,51.74,47,52.16,47.55Z"/><path class="cls-41" d="M55.34,60.21l.12-.46c-.2-.49.1-.91.18-1.36s.24-1.2.44-1.79a14.17,14.17,0,0,1,.47-1.66,2.54,2.54,0,0,0,.32-1.28A1.1,1.1,0,0,1,58,52.53,1.13,1.13,0,0,1,58.67,54c-.45,1.72-.8,3.46-1.17,5.2A1.15,1.15,0,0,0,58,60.68C57,60.38,56.11,60.51,55.34,60.21Z"/><path class="cls-42" d="M43.29,33.21A32.08,32.08,0,0,1,44,36.85a2,2,0,0,1-2.1-.15,3.11,3.11,0,0,1-.53,0c-1.42-.26-1.36-.2-1.12-1.54.06-.34.22-.55.62-.43a2.23,2.23,0,0,0,.45,0c.34,0,.65-.12.68-.46s-.39-.26-.62-.29c-.62-.07-1.24-.11-1.86-.16a.45.45,0,0,1-.44-.51c0-.29.27-.24.46-.24A24.57,24.57,0,0,1,43.29,33.21Z"/><path class="cls-43" d="M36.48,57.52c0-.44-.61-.35-.6-.77a41.76,41.76,0,0,0,5.26,1c1.82.12,3.56.57,5.35.81a6.87,6.87,0,0,1,2.59.61c.59.33,1.19-.09,1.83.06a9.44,9.44,0,0,0,3.46.51.42.42,0,0,1,.5.44l-5.79-.63C48,59.46,47,59.3,45.9,59.22a55.64,55.64,0,0,1-5.88-.9A32.93,32.93,0,0,1,36.48,57.52Z"/><path class="cls-44" d="M62.13,36.09l.9-2.55h3.6a1.44,1.44,0,0,1,.49,2,1,1,0,0,1-.86.71,33.33,33.33,0,0,1-3.74,0A.56.56,0,0,1,62.13,36.09Z"/><path class="cls-34" d="M46.88,53.14h.53c.18,0,.39,0,.42-.21s-.16-.23-.25-.34a2,2,0,0,0-1.85-.67A7.78,7.78,0,0,1,43,51.53a8.15,8.15,0,0,0-2.47-.05c-.44,0-.76-.07-.74-.6,1.08.15,2.16.32,3.25.43,2,.22,4,.41,6,.6.7.06,1.4.1,2.09.13,2.1.09,4.18.4,6.29.34-.11.44-.49.35-.78.36-1,0-1.94,0-2.92,0a1.73,1.73,0,0,0-1.81.88,1.75,1.75,0,0,1-1.46.09,6.28,6.28,0,0,0-2.65-.24C47.49,53.5,47.05,53.63,46.88,53.14Z"/><path class="cls-27" d="M63.93,58.72a20.74,20.74,0,0,1-1.82,2.62c-.41.48-.35,1.2-.89,1.6V56a16.13,16.13,0,0,1,1.63,1.89A1.23,1.23,0,0,0,63.93,58.72Z"/><path class="cls-2" d="M41.91,36.7a16.35,16.35,0,0,0,2.1.15q.77,2.49,1.51,5a.82.82,0,0,1-.86-.35c-.38-.65-1.15-1-1.24-1.91,0-.37-.37-.44-.68-.46s-.6-.15-.5-.4C42.54,37.94,42,37.37,41.91,36.7Z"/><path class="cls-45" d="M51.86,53.58c.1-.91.76-1,1.49-1h3.38c.24,0,.51.08.71-.15.2,0,.44-.09.59.15a1.16,1.16,0,0,0-1,1.42,1.23,1.23,0,0,1-.39,1c-.25-.69-.82-.81-1.44-.83-1,0-2-.17-3-.23A.69.69,0,0,1,51.86,53.58Z"/><path class="cls-46" d="M58.94,48.31c.26-1.12.51-2.26.81-3.38a2.5,2.5,0,0,1,.25-1c.29-.44.79-.59,1.2-.86a.59.59,0,0,1,.91.71,28.83,28.83,0,0,0-1.76,2.64A21.07,21.07,0,0,1,58.94,48.31Z"/><path class="cls-47" d="M62.13,36.09c1.27,0,2.54,0,3.82,0,.46,0,.88-.05,1-.55s.47-1-.09-1.5a.57.57,0,0,1-.24-.51,9.86,9.86,0,0,0,2.16-.12.39.39,0,0,1-.31.52c-.81.13-1,.72-1.11,1.4s-.54.88-.74,1.35c-.86,0-1.71,0-2.56,0a5.37,5.37,0,0,0-2.25.31C61.92,36.7,62,36.39,62.13,36.09Z"/><path class="cls-48" d="M70.71,72V69.27a4.81,4.81,0,0,0,.16-1.81c0-.45-.15-.94.13-1.37,0,.35,0,.72.49.77a.34.34,0,0,1,.24.52,7.73,7.73,0,0,0-.64,2.72,1.71,1.71,0,0,0,0,.87A.76.76,0,0,1,70.71,72Z"/><path class="cls-49" d="M62.11,43.78c-.17-.8-.35-.88-1-.47-.36.22-.73.42-1.1.62v-.45c1-.63,2.29-.67,3-1.73.12-.18.36-.36.43.07C62.72,42.28,62.73,43.25,62.11,43.78Z"/><path class="cls-50" d="M63.45,55.71A1.62,1.62,0,0,0,64.74,55c.2-.39.62-.35,1-.32-.42.43-.83.87-1.26,1.28S63.67,56.36,63.45,55.71Z"/><path class="cls-51" d="M71.17,55.4a5.3,5.3,0,0,1,.15-2h.94C71.55,54,71.49,54.75,71.17,55.4Z"/><path class="cls-52" d="M61.05,50.87c.62.33.62,1.1,0,1.82A4,4,0,0,0,61.05,50.87Z"/><path class="cls-53" d="M21,56.15c0,.54,0,1.09,0,1.63-.12-.49-.26-1-.36-1.47S20.81,56.15,21,56.15Z"/><path class="cls-43" d="M58.36,89.48h1.18c0,.38-.14.52-.48.41A1.31,1.31,0,0,1,58.36,89.48Z"/><path class="cls-54" d="M46.13,33.23c3.47,0,6.93,0,10.39,0,1.07,0,2.14.12,3.22.12.23,0,.39.06.43.31a6.76,6.76,0,0,0-.63,1.8c-.1.57,0,1.22-.61,1.59a1,1,0,0,0-.56.67.66.66,0,0,1-1,.48,21.3,21.3,0,0,0-5.07-1.33,17.81,17.81,0,0,0-2.93-.15,7.56,7.56,0,0,1-2.58-.36A15.24,15.24,0,0,1,46.13,33.23Z"/><path class="cls-55" d="M46.75,36.39c2.12.25,4.28,0,6.38.46,1.18.26,2.36.51,3.54.78.13,0,.24.17.37.25.74.5,1,.42,1.15-.45.09-.46.42-.42.74-.43.06,0,.08.06.07.1s0,.06,0,.06l-.49,1.65a2,2,0,0,1-.9.36.93.93,0,0,0-.63.37c-.91,1.37-2.27,1.39-3.68,1.24-.82-.08-1.64-.22-2.46-.27a1.1,1.1,0,0,1-1.1-1.43c.14-.56-.09-.77-.5-1a4.47,4.47,0,0,0-1.07-.35A2,2,0,0,1,47,37.3,2.06,2.06,0,0,1,46.75,36.39Z"/><path class="cls-56" d="M47,37.3a7.64,7.64,0,0,1,2.75.88c.33.21.43.28.21.65-.45.76,0,1.45.91,1.5s1.63.25,2.43.31c1.09.07,2.27.21,3.13-.86a2.36,2.36,0,0,1,2-1l-.15.6c-.69,0-1.22,0-1.58.83s-1.44,1-2.34.81a12,12,0,0,0-1.79-.13,15,15,0,0,1-2.22-.1c-.3,0-.68,0-.82-.3a3.31,3.31,0,0,0-1.78-1.39c-.13-.06-.2-.22-.32-.31A6.16,6.16,0,0,1,47,37.3Z"/><path class="cls-5" d="M47.47,38.82a11.78,11.78,0,0,0,1.43.56.58.58,0,0,1,.45.46c.16.68.65.76,1.24.8a7.24,7.24,0,0,1,2,.28,29.89,29.89,0,0,1-4,1.2A22.37,22.37,0,0,1,47.47,38.82Z"/><path class="cls-57" d="M50.09,44.35A8,8,0,0,1,48.74,42a32.88,32.88,0,0,1-1.11-3.21c-.15-.51-.3-1-.46-1.52a8.28,8.28,0,0,1-.25-1,21.62,21.62,0,0,1-.6-3.09c-.22-.63.06-1.38-.48-1.93.09-.78.79-.42,1.18-.62.21-.73.85-.62,1.39-.71a3.56,3.56,0,0,0,1.51-4.55A10,10,0,0,0,48.45,24a2.7,2.7,0,0,0-2.91-.12,3.16,3.16,0,0,1-1.22.66,3.32,3.32,0,0,0-.89,2c.12.39.55,0,.73.25-.23.31-.65.24-.88.51-.05.09-.16.17-.24.11a10.11,10.11,0,0,1-2.78-2.39c-.33-.27-.84,0-1.13-.39s0-.81,0-1.21a.32.32,0,0,0-.08-.2,19.42,19.42,0,0,1-1.8-4.7,38.39,38.39,0,0,1-.94-5.95,31.3,31.3,0,0,1,.05-6.42c.15-1.36.22-1.35-1.09-1.58a1.22,1.22,0,0,0-1.52,1,4.51,4.51,0,0,0-.12.82c-.11,1.19-.06,2.39-.12,3.57-.17,3,.54,5.85,1,8.75.06.35.42.49.43.85a5.38,5.38,0,0,0,.54,2.33,1,1,0,0,0,.31.19,1.52,1.52,0,0,1,.85.8c.15.38-.26.5-.35.77a.24.24,0,0,0,.06.21,12.59,12.59,0,0,0,2.09,3.18c.27.11.47-.09.71-.16s.43-.07.34.25c-.18.66.21.8.72.83.35,0,.75.08.77.46a2.08,2.08,0,0,0,.95,1.44c.57.38,1.56.44,1.21,1.54a7.84,7.84,0,0,1,.17,1.93,1.9,1.9,0,0,0,0,1c.17.86.4,1.72.55,2.6s.42,1.58.68,2.35a10.39,10.39,0,0,0,1,2.64,1.79,1.79,0,0,1,.33.9,5.66,5.66,0,0,0,1,2.32c1,1.49,1.39,1.59,2.92.7C50.56,45.29,50.63,45.07,50.09,44.35ZM45.88,27.84c.11-.45.16-.92.31-1.36s.33-.73.8-.63.45.53.5.84a1.72,1.72,0,0,1-1.38,1.4C45.94,28.1,45.82,28.06,45.88,27.84Z"/><path class="cls-51" d="M52.16,47.55c-.47-.25-1-.13-1.51-.3a2.06,2.06,0,0,1,1.59-.11A2.41,2.41,0,0,0,54,46.8c1,0,1.76-.75,2.71-.91,0,.26.1.55-.15.76a12.11,12.11,0,0,1-1.91.83,1.68,1.68,0,0,1-1.15,0C53,47.26,52.61,47.63,52.16,47.55Z"/><path class="cls-58" d="M59,37.16l0-.16.61-1.51c.27.22.81.26.49.86C59.79,36.8,59.79,37.52,59,37.16Z"/><path class="cls-42" d="M23.66,53.74A20.32,20.32,0,0,1,21,53.17c-.28-.06-.49-.18-.21-.49A5.84,5.84,0,0,1,24,52.54a46.86,46.86,0,0,1,5.22,1.06c.09,0,0,0,.07,0,2.09-.23,4,.91,6.15.69a14.25,14.25,0,0,1,3.65.41,51.54,51.54,0,0,0,5.5.87,35.26,35.26,0,0,0,5.32-.38,1.13,1.13,0,0,0,.95-.64.79.79,0,0,1,.92-.48c.24.12.13.29.06.45s-.24.37-.33.58c-.29.67-.12.92.6.9,1,0,2.07.08,3.11.11.08.53-.29.68-.69.78a2.94,2.94,0,0,1-.89,0,.76.76,0,0,0-.85.55,11.51,11.51,0,0,0-1.33-.16,1.14,1.14,0,0,0-.93.39,1.27,1.27,0,0,1-.27.25,1,1,0,0,1-1.07.05c-.3-.28.23-.43.35-.67s.23-.33.32-.51a.47.47,0,0,0,0-.56.45.45,0,0,0-.49-.11,1,1,0,0,0-.41.18c-.55.5-1.06,1-1.77.18-.16-.18-.34.1-.37.31a.67.67,0,0,1-.9.63c-.45-.1-1.08,0-1.07-.78a.22.22,0,0,0,0-.08c0-.27-.19-.35-.41-.31-.63.11-1.22-.58-1.85-.1-.07,0,0,.32,0,.56a5.51,5.51,0,0,0-1.65-.19c-.23,0-.55-.11-.45-.46s.31-.27.52-.09.24.1.3-.06a.26.26,0,0,0-.13-.32,1,1,0,0,0-1.06,0c-.32.29-.47.83-1,.75a3,3,0,0,1-1.69-.75.78.78,0,0,0-1.19-.14c-.52.33-1.21,0-1.8-.1a56.75,56.75,0,0,0-7.21-1.08c-.93-.08-1.8-.56-2.73-.71C24.15,53.61,23.89,53.49,23.66,53.74Z"/><path class="cls-59" d="M52.76,57.5c-.27-.5-.11-.75.45-.75h1a.9.9,0,0,0,1-.6c.78-.36,1.06-.23,1.06.46a7.5,7.5,0,0,1-.45,1.81c-.43.06-.56.43-.76.74-.05-.06-.12-.11-.13-.18-.26-1.47-.26-1.47-1.76-1.47Z"/><path class="cls-60" d="M55,59.16c0-.8.08-.86.76-.74l-.33,1.33C55,59.76,55.29,59.27,55,59.16Z"/><path class="cls-61" d="M51.86,54.19c-.45,0-.8.13-.93.67-.18.71-.91.58-1.39.64-1.44.18-2.88.27-4.33.34a27.29,27.29,0,0,1-4.65-.67,38.48,38.48,0,0,0-6.15-.7c-.84,0-1.69-.2-2.54-.13a.61.61,0,0,1-.53-.25c-.49-.62-1.1-.48-1.68-.21-.27.12-.45.21-.63-.09s-.33-.2-.53-.22c-2.57-.31-5.07-1.2-7.71-.89l0-.6a1.27,1.27,0,0,1,1-.36c2.71,0,5.42,0,8.12-.07a18.16,18.16,0,0,0,3.6-.24.47.47,0,0,1,.36.06c1.6.22,3.2.46,4.8.67L45,53a10.54,10.54,0,0,0,1.86.16c.74.36,1.5,0,2.25,0,.24,0,.47-.06.7.09a3.47,3.47,0,0,0,2,.3c.13,0,.24,0,.3.15C52.3,54,52.2,54.2,51.86,54.19Z"/><path class="cls-42" d="M33.93,51.47a24.06,24.06,0,0,1-4.79.37c-2.19.12-4.37,0-6.56.15a17.44,17.44,0,0,0-1.76.09c.09-.86.19-1.72.28-2.58,0-.38-.07-.59-.53-.6a2.8,2.8,0,0,1-1.23-.31l3,.32a35.51,35.51,0,0,0,5.49,1.36Z"/><path class="cls-34" d="M51.86,54.19a.47.47,0,0,0,.3-.46c1.27,0,2.53.18,3.79.26.76,0,.78.42.74,1l-.45,1.66c-.06-.83-.71-.32-1.06-.46a4.43,4.43,0,0,1-2.08.05,4.7,4.7,0,0,0-1.24,0c-.61.05-.89-.29-.71-.9A3.76,3.76,0,0,1,51.86,54.19Z"/><path class="cls-54" d="M54.45,40c-.37,0-.66,0-.74-.28s.24-.37.46-.47l.07,0c.4-.13.8-.28,1.19,0,.09.08.16.2,0,.32A1.59,1.59,0,0,1,54.45,40Z"/></g></g></svg>