<svg xmlns="http://www.w3.org/2000/svg" viewBox="0 0 136.1 183.83"><defs><style>.cls-1,.cls-5{fill:none;stroke-miterlimit:10;stroke-width:3px;}.cls-1{stroke:#1b676b;}.cls-2{fill:#4cc1be;}.cls-3{fill:#1b676b;}.cls-4{fill:#fff;}.cls-5{stroke:#113f41;stroke-linecap:round;}.cls-6{fill:#479891;}.cls-7{fill:#4ab288;}</style></defs><g id="Layer_2" data-name="Layer 2"><g id="gotas_completas_pagina_2" data-name="gotas completas pagina 2"><line class="cls-1" x1="50.41" y1="149.58" x2="50.41" y2="180.83"/><line class="cls-1" x1="80.75" y1="152.7" x2="80.75" y2="180.83"/><rect class="cls-2" x="44.77" y="179.53" width="8.07" height="4.3" rx="2.15"/><rect class="cls-2" x="77.95" y="179.53" width="8.07" height="4.3" rx="2.15"/><path class="cls-2" d="M127.58,103.92c0,31.29-28.34,56.66-63.29,56.66S1,135.21,1,103.92,64.24,0,64.24,0C66.71,0,127.58,72.63,127.58,103.92Z"/><circle class="cls-3" cx="42.34" cy="88.16" r="8.07"/><circle class="cls-4" cx="43.99" cy="85.29" r="3.77"/><circle class="cls-3" cx="88.82" cy="87.88" r="8.07"/><circle class="cls-4" cx="90.03" cy="85.29" r="3.77"/><path class="cls-5" d="M59.44,98.22s7.72,6.93,15.52,0"/><line class="cls-1" x1="17.51" y1="94.68" x2="0.99" y2="80.09"/><line class="cls-1" x1="135.33" y1="84.24" x2="117.19" y2="94.96"/><path class="cls-6" d="M60.06,134.87a16.68,16.68,0,0,0,13.28-7.75c5.22-7.9,22.87-.22,16,13s-23,11.71-28,10.07c-3.41-1.11-12.11-5.37-11.41-14.31a1.26,1.26,0,0,1,.05-.28,3.38,3.38,0,0,1,4.71-2.31C58.5,134.65,59.09,134.81,60.06,134.87Z"/><path class="cls-7" d="M73.24,147.86a2.3,2.3,0,0,1-1.18-1.4,2.33,2.33,0,0,1,1.56-2.88c2.13-.64,8-3.11,9.47-6.86a2.31,2.31,0,1,1,4.3,1.7c-2.61,6.61-12,9.48-12.45,9.6A2.31,2.31,0,0,1,73.24,147.86Z"/></g></g></svg>