<svg xmlns="http://www.w3.org/2000/svg" viewBox="0 0 125.42 183.83"><defs><style>.cls-1,.cls-5{fill:none;stroke-miterlimit:10;stroke-width:3px;}.cls-1{stroke:#1b676b;}.cls-2{fill:#4cc1be;}.cls-3{fill:#1b676b;}.cls-4{fill:#fff;}.cls-5{stroke:#113f41;stroke-linecap:round;}.cls-6{fill:#479891;}.cls-7{fill:#4ab288;}</style></defs><g id="Layer_2" data-name="Layer 2"><g id="gotas_completas_pagina_2" data-name="gotas completas pagina 2"><line class="cls-1" x1="48.25" y1="149.58" x2="48.25" y2="180.83"/><line class="cls-1" x1="78.59" y1="152.7" x2="78.59" y2="180.83"/><rect class="cls-2" x="42.61" y="179.53" width="8.07" height="4.3" rx="2.15"/><rect class="cls-2" x="75.8" y="179.53" width="8.07" height="4.3" rx="2.15"/><path class="cls-2" d="M125.42,103.92c0,31.29-27.88,56.66-62.28,56.66S.86,135.21.86,103.92,63.09,0,63.09,0C65.53,0,125.42,72.63,125.42,103.92Z"/><ellipse class="cls-3" cx="21.81" cy="87.3" rx="7.62" ry="8.07"/><circle class="cls-3" cx="61.84" cy="87.01" r="8.07"/><circle class="cls-4" cx="24.56" cy="85.39" r="3.77"/><circle class="cls-4" cx="64.6" cy="85.39" r="3.77"/><path class="cls-5" d="M47.9,102.53s-7.12-6.41-13.24,1"/><path class="cls-1" d="M69.86,106.08s-.53,16-13.42,19.46c-10.75,2.93-28.24-8.6-29.94-9.46-1.85-.94-3.64-2.09-5.64-1.78s-4.14,1.47-5.5,4.85"/><path class="cls-1" d="M1.68,106.08s-2.33,17.56,9.77,19.57,23.29-13.39,37.69-7.37"/><path class="cls-2" d="M12.4,72.62H69.91a0,0,0,0,1,0,0v7.26a3.66,3.66,0,0,1-3.66,3.66H18.39a6,6,0,0,1-6-6V72.62A0,0,0,0,1,12.4,72.62Z"/><path class="cls-6" d="M93.84,123.12A16.65,16.65,0,0,0,93,107.77c-4.63-8.26,10.28-20.44,18.87-8.26s-.1,25.77-3.87,29.51c-2.54,2.52-10.31,8.3-18,3.59a1.24,1.24,0,0,1-.22-.18,3.38,3.38,0,0,1,.1-5.24C92.93,124.4,93.34,124,93.84,123.12Z"/><path class="cls-7" d="M111.42,117.35a2.31,2.31,0,0,1-3.63-2.3c.41-2.19.89-8.53-1.77-11.56a2.31,2.31,0,0,1,3.48-3c4.69,5.35,2.91,15.06,2.84,15.47A2.33,2.33,0,0,1,111.42,117.35Z"/></g></g></svg>