<svg xmlns="http://www.w3.org/2000/svg" viewBox="0 0 126.24 183.83"><defs><style>.cls-1,.cls-5,.cls-8,.cls-9{fill:none;stroke-miterlimit:10;}.cls-1{stroke:#1b676b;}.cls-1,.cls-5{stroke-width:3px;}.cls-2{fill:#4cc1be;}.cls-3{fill:#1b676b;}.cls-4{fill:#fff;}.cls-5{stroke:#113f41;}.cls-5,.cls-9{stroke-linecap:round;}.cls-6{fill:#479891;}.cls-7{fill:#4ab288;}.cls-8,.cls-9{stroke:#f5b400;stroke-width:2px;}</style></defs><g id="Layer_2" data-name="Layer 2"><g id="Layer_10" data-name="Layer 10"><line class="cls-1" x1="49.07" y1="149.58" x2="49.07" y2="180.83"/><line class="cls-1" x1="79.41" y1="152.7" x2="79.41" y2="180.83"/><rect class="cls-2" x="43.43" y="179.53" width="8.07" height="4.3" rx="2.15"/><rect class="cls-2" x="76.62" y="179.53" width="8.07" height="4.3" rx="2.15"/><path class="cls-2" d="M126.24,103.92c0,31.29-27.88,56.66-62.28,56.66S1.68,135.21,1.68,103.92,63.91,0,63.91,0C66.35,0,126.24,72.63,126.24,103.92Z"/><ellipse class="cls-3" cx="22.63" cy="87.3" rx="7.62" ry="8.07"/><circle class="cls-3" cx="62.66" cy="87.01" r="8.07"/><circle class="cls-4" cx="20.28" cy="89.16" r="3.77"/><circle class="cls-4" cx="60.32" cy="89.16" r="3.77"/><path class="cls-5" d="M49.29,103.9s-7.11-6.41-13.23,1"/><path class="cls-6" d="M94.66,123.12a16.65,16.65,0,0,0-.82-15.35c-4.63-8.26,10.28-20.44,18.87-8.26s-.1,25.77-3.87,29.51c-2.54,2.52-10.32,8.3-18,3.59a1.24,1.24,0,0,1-.22-.18,3.38,3.38,0,0,1,.1-5.24C93.75,124.4,94.16,124,94.66,123.12Z"/><path class="cls-7" d="M112.24,117.35a2.31,2.31,0,0,1-3.63-2.3c.41-2.19.89-8.53-1.77-11.56a2.31,2.31,0,0,1,3.48-3c4.69,5.35,2.91,15.06,2.84,15.47A2.33,2.33,0,0,1,112.24,117.35Z"/><path class="cls-1" d="M70.68,106.08s-.53,16-13.42,19.46c-10.75,2.93-31.89-1.17-33.59-2-1.85-.93-3.64-2.08-5.64-1.77s-4.14,1.47-5.5,4.84"/><path class="cls-1" d="M2.5,106.08s-2.33,17.56,9.77,19.57,10.7-23,25.1-16.93"/><rect class="cls-8" x="1" y="71.89" width="36.37" height="28.07" rx="3.41"/><rect class="cls-8" x="46.55" y="71.89" width="36.37" height="28.07" rx="3.41"/><path class="cls-9" d="M37.37,82.51s4.36-4.62,9.18,0"/></g></g></svg>