<svg xmlns="http://www.w3.org/2000/svg" viewBox="0 0 136.1 183.83"><defs><style>.cls-1,.cls-5{fill:none;stroke-miterlimit:10;stroke-width:3px;}.cls-1{stroke:#1b676b;}.cls-2{fill:#4cc1be;}.cls-3{fill:#1b676b;}.cls-4{fill:#fff;}.cls-5{stroke:#113f41;stroke-linecap:round;}.cls-6{fill:#479891;}.cls-7{fill:#4ab288;}</style></defs><g id="Layer_2" data-name="Layer 2"><g id="gotas_completas_pagina_2" data-name="gotas completas pagina 2"><line class="cls-1" x1="50.41" y1="149.58" x2="50.41" y2="180.83"/><line class="cls-1" x1="80.75" y1="152.7" x2="80.75" y2="180.83"/><rect class="cls-2" x="44.77" y="179.53" width="8.07" height="4.3" rx="2.15"/><rect class="cls-2" x="77.95" y="179.53" width="8.07" height="4.3" rx="2.15"/><path class="cls-2" d="M127.58,103.92c0,31.29-28.34,56.66-63.29,56.66S1,135.21,1,103.92,64.24,0,64.24,0C66.71,0,127.58,72.63,127.58,103.92Z"/><circle class="cls-3" cx="42.34" cy="88.16" r="8.07"/><circle class="cls-4" cx="43.99" cy="85.29" r="3.77"/><circle class="cls-3" cx="88.82" cy="87.88" r="8.07"/><circle class="cls-4" cx="90.03" cy="85.29" r="3.77"/><path class="cls-5" d="M75,101.3s-7.71-6.94-15.52,0"/><line class="cls-1" x1="17.51" y1="94.68" x2="0.99" y2="80.09"/><line class="cls-1" x1="135.33" y1="84.24" x2="117.19" y2="94.96"/><path class="cls-6" d="M61.57,142.38a16.66,16.66,0,0,0-15.3,1.43c-8.07,5-20.83-9.45-9-18.52S63,124.35,66.9,128c2.62,2.44,8.71,10,4.31,17.79A1,1,0,0,1,71,146a3.37,3.37,0,0,1-5.24.11C62.9,143.24,62.42,142.85,61.57,142.38Z"/><path class="cls-7" d="M55.11,125A2.31,2.31,0,0,1,53,128.76c-2.21-.32-8.56-.54-11.48,2.23a2.31,2.31,0,0,1-3.19-3.35c5.16-4.9,14.93-3.52,15.34-3.46A2.29,2.29,0,0,1,55.11,125Z"/></g></g></svg>