<svg xmlns="http://www.w3.org/2000/svg" viewBox="0 0 86.39 82.05"><defs><style>.cls-1{fill:#bfebce;}.cls-2{fill:none;stroke:#f7f7f7;stroke-miterlimit:10;stroke-width:3px;}.cls-3{fill:#616161;}.cls-4{fill:#8e8e8e;}</style></defs><g id="Layer_2" data-name="Layer 2"><g id="par_2" data-name="par 2"><circle class="cls-1" cx="41.03" cy="41.03" r="41.03"/><polyline class="cls-2" points="45.02 43.86 37.41 57.35 49.53 52.97 39.67 71.46"/><path class="cls-3" d="M51.05,31.66s22-3.54,35.34-11.42c0,0-1-6.35-9.32-4,0,0-2.16-14.88-15.21-11.88,0,0-12.1,2.33-10.93,16.58A82.41,82.41,0,0,1,51.05,31.66Z"/><circle class="cls-3" cx="58.88" cy="32.73" r="4.36"/><circle class="cls-3" cx="80.41" cy="25.11" r="4.36"/><polygon class="cls-4" points="20.77 39.01 11.18 39.01 11.18 9.76 21.13 16.98 20.77 39.01"/><polygon class="cls-4" points="33.57 39.01 25.93 39.01 25.93 24.97 33.57 29 33.57 39.01"/><path class="cls-4" d="M16.55,11.75c2.82-1.59,2.21-4.5,0-5.77S20.82.84,20.82.84"/><path class="cls-4" d="M29.91,25.39a2.17,2.17,0,0,0,0-4c-1.51-.86,2.91-3.53,2.91-3.53"/></g></g></svg>