<svg xmlns="http://www.w3.org/2000/svg" viewBox="0 0 952.88 205.24"><defs><style>.cls-1{fill:#f5b400;}.cls-2{fill:#a3da4b;}.cls-3{fill:#4cc1be;}</style></defs><g id="Layer_2" data-name="Layer 2"><g id="Layer_2-2" data-name="Layer 2"><path class="cls-1" d="M76,205.24V165.47H24.51A24.51,24.51,0,0,1,0,141H0L84.7,30.64h18.83V140.45h21.79v25H103.53v17.6a22.17,22.17,0,0,1-22.17,22.17ZM27.49,140.45H79V72.67Z"/><path class="cls-2" d="M143.27,87.1a89,89,0,0,1,21.44-57.79A78.13,78.13,0,0,1,190.29,9.69q15-7.29,34.24-7.3,23,0,39.43,10.41a66,66,0,0,1,24.53,26.68L267.64,53.6a43.18,43.18,0,0,0-11.72-16.27A42.71,42.71,0,0,0,240.16,29a61.82,61.82,0,0,0-16.59-2.39,47.61,47.61,0,0,0-23,5.38,51.74,51.74,0,0,0-16.7,14.24A62,62,0,0,0,173.83,66a76,76,0,0,0-3.32,22,71.74,71.74,0,0,0,3.91,23.69,63.77,63.77,0,0,0,11.14,20,53.7,53.7,0,0,0,17.06,13.76,47,47,0,0,0,21.67,5,54.53,54.53,0,0,0,17.06-2.88,48.87,48.87,0,0,0,16.22-9.09,42.86,42.86,0,0,0,11.73-15.8l22,12.44a51.29,51.29,0,0,1-16,21.54,78.42,78.42,0,0,1-24.75,13.4,86.18,86.18,0,0,1-27.25,4.55,68.94,68.94,0,0,1-32-7.54A83.39,83.39,0,0,1,165.9,147a93.8,93.8,0,0,1-16.7-28.24A88.79,88.79,0,0,1,143.27,87.1Z"/><path class="cls-3" d="M376,172.13V4.93a1.34,1.34,0,0,1,1.34-1.34H486.43a1.34,1.34,0,0,1,1.34,1.34V5.2a22.08,22.08,0,0,1-22.09,22.08H404.07a1.34,1.34,0,0,0-1.34,1.34v48A1.34,1.34,0,0,0,404.07,78h68.62A1.35,1.35,0,0,1,474,79.34h0A20.68,20.68,0,0,1,453.36,100H404.07a1.34,1.34,0,0,0-1.34,1.34V151.8a21.68,21.68,0,0,1-21.68,21.67H377.3A1.34,1.34,0,0,1,376,172.13Z"/><path class="cls-3" d="M701.92,176.83a65,65,0,0,1-26.3-5.11,62.41,62.41,0,0,1-20.14-14,63.62,63.62,0,0,1-13.15-20.42,64.81,64.81,0,0,1-4.61-24.35,66.23,66.23,0,0,1,8-32.41,61.51,61.51,0,0,1,22.62-23.43q14.58-8.75,33.53-8.75,19.65,0,33.75,8.88a62.69,62.69,0,0,1,25,29.79,64.66,64.66,0,0,1,4.72,26.23q0,1.94-.21,3.69c-.16,1.66-.32,2.95-.47,3.9H665.2a43.74,43.74,0,0,0,6.39,19.25,37.49,37.49,0,0,0,13.5,12.76,35.62,35.62,0,0,0,17.54,4.61,40.15,40.15,0,0,0,20-5.27q9.36-5.27,12.67-13.88l22.28,6.46a47.38,47.38,0,0,1-12.32,16.39A62.45,62.45,0,0,1,726,172.63,67,67,0,0,1,701.92,176.83Zm-37.2-73.22h74.86a40.93,40.93,0,0,0-6-18.76A37.6,37.6,0,0,0,684,72.29a37.8,37.8,0,0,0-13.39,12.56A38.31,38.31,0,0,0,664.72,103.61Z"/><path class="cls-3" d="M785.55,0h8.82a17.24,17.24,0,0,1,17.24,17.23v122q0,9.36,2.85,12.12a9.76,9.76,0,0,0,7.1,2.76,33.06,33.06,0,0,0,8.88-1.2c2.92-.79,5.33-1.52,7.23-2.15l3.79,20.57a75.24,75.24,0,0,1-13.5,4.07,68.12,68.12,0,0,1-14,1.68q-13.5,0-21-7.56t-7.46-21Z"/><path class="cls-3" d="M903.84,176.83a83.53,83.53,0,0,1-29.61-5.27A64.39,64.39,0,0,1,850.31,156l9.47-17.47a80.81,80.81,0,0,0,21.67,13.75,56,56,0,0,0,21.45,4.43q11.13,0,17.88-4.1a13.25,13.25,0,0,0,6.75-12.07q0-5.93-3.67-8.77a33.69,33.69,0,0,0-10.43-5q-6.75-2.13-16-4.74a162.09,162.09,0,0,1-22.16-8.41q-9.12-4.4-13.62-10.79t-4.5-16.35q0-11.87,6.17-20.39A39.3,39.3,0,0,1,880.51,53q11-4.62,25.47-4.62a72.49,72.49,0,0,1,25,4.18,54.63,54.63,0,0,1,20.26,13L940.09,82.78a56.35,56.35,0,0,0-16.83-11,48.69,48.69,0,0,0-18.7-3.59,45.61,45.61,0,0,0-10.78,1.29,19.15,19.15,0,0,0-8.89,4.73c-2.36,2.3-3.55,5.49-3.55,9.6,0,3.47,1,6.19,2.95,8.16A24,24,0,0,0,893,97.06q5.67,2.13,14,4.74a213.44,213.44,0,0,1,24.64,8.28q10.17,4.26,15.75,10.77t5.57,17.87q0,17.76-13.38,27.93T903.84,176.83Z"/><path class="cls-3" d="M612.42,150.17c-1.1-1.35-1.66-3.44-1.66-6.29V49.29H584.7v77.42a46.56,46.56,0,0,1-9.34,14.51,40.13,40.13,0,0,1-12.8,9.09,35.26,35.26,0,0,1-14.33,3.07q-11.61,0-17.65-8.43t-6.05-25V49.29h-26v76q0,24.93,9.94,37.76t29.39,12.83a61.43,61.43,0,0,0,29.25-7.13,55.23,55.23,0,0,0,21.44-20.19l.67,13.28c1.16,10,7.7,12.95,14.91,13,8.19,0,13.79-5.07,13.79-11.68V152.42Q614.09,152.18,612.42,150.17Z"/><path class="cls-1" d="M295.2,170.91h61.54a.47.47,0,0,1,.47.47v2A10.24,10.24,0,0,1,347,183.6H295.2a.47.47,0,0,1-.47-.47V171.38A.47.47,0,0,1,295.2,170.91Z"/></g></g></svg>