<svg xmlns="http://www.w3.org/2000/svg" viewBox="0 0 830.7 317.77"><defs><style>.cls-1{fill:#fff;}.cls-2,.cls-3{fill:none;stroke:#fff;stroke-miterlimit:10;}.cls-2{stroke-width:13px;}.cls-3{stroke-width:6px;}</style></defs><g id="Layer_2" data-name="Layer 2"><g id="Layer_3" data-name="Layer 3"><path class="cls-1" d="M324.91,210.24V187.3H295.19a14.14,14.14,0,0,1-14.14-14.14h0l48.86-63.64h10.86v63.35h12.57V187.3H340.77v10.15A12.79,12.79,0,0,1,328,210.24Zm-28-37.37h29.72v-39.1Z"/><path class="cls-1" d="M363.69,142.09a51.41,51.41,0,0,1,12.37-33.33,44,44,0,0,1,34.51-15.53q13.24,0,22.74,6a37.94,37.94,0,0,1,14.15,15.39l-12,8.14a25.06,25.06,0,0,0-6.77-9.39,24.72,24.72,0,0,0-9.09-4.83,35.63,35.63,0,0,0-9.56-1.38,27.46,27.46,0,0,0-13.26,3.11,29.93,29.93,0,0,0-9.63,8.21,35.51,35.51,0,0,0-5.8,11.46,43.62,43.62,0,0,0-1.92,12.69,41.18,41.18,0,0,0,2.26,13.67,36.66,36.66,0,0,0,6.42,11.52,31,31,0,0,0,9.84,7.94,27.07,27.07,0,0,0,12.5,2.9,31.69,31.69,0,0,0,9.84-1.66,28.1,28.1,0,0,0,9.36-5.25,24.66,24.66,0,0,0,6.76-9.11l12.71,7.18a29.57,29.57,0,0,1-9.22,12.42A45.32,45.32,0,0,1,425.6,190a49.79,49.79,0,0,1-15.72,2.63,39.74,39.74,0,0,1-18.44-4.35,48.12,48.12,0,0,1-14.69-11.59,54.33,54.33,0,0,1-9.64-16.29A51.33,51.33,0,0,1,363.69,142.09Z"/><path class="cls-1" d="M497.91,191.14V94.7a.78.78,0,0,1,.78-.78h62.95a.78.78,0,0,1,.77.78v.15a12.74,12.74,0,0,1-12.74,12.74H514.13a.77.77,0,0,0-.77.77v27.71a.76.76,0,0,0,.77.77h39.58a.78.78,0,0,1,.78.78h0a11.93,11.93,0,0,1-11.93,11.93H514.13a.76.76,0,0,0-.77.77v29.09a12.5,12.5,0,0,1-12.51,12.5h-2.16A.77.77,0,0,1,497.91,191.14Z"/><path class="cls-1" d="M685.94,193.85a37.36,37.36,0,0,1-15.17-2.95,35.9,35.9,0,0,1-11.62-8.08A36.73,36.73,0,0,1,651.57,171a37.32,37.32,0,0,1-2.67-14,38.18,38.18,0,0,1,4.65-18.69,35.33,35.33,0,0,1,13.05-13.51,36.76,36.76,0,0,1,19.34-5.06q11.32,0,19.47,5.13A36.22,36.22,0,0,1,719.82,142a37.11,37.11,0,0,1,2.72,15.13c0,.75,0,1.45-.12,2.13-.09,1-.18,1.7-.27,2.25h-57.4a25.44,25.44,0,0,0,3.69,11.11,21.67,21.67,0,0,0,7.79,7.35,20.55,20.55,0,0,0,10.12,2.66,23.13,23.13,0,0,0,11.54-3,15.55,15.55,0,0,0,7.31-8l12.85,3.73a27.36,27.36,0,0,1-7.11,9.46,36.24,36.24,0,0,1-11.13,6.62A38.75,38.75,0,0,1,685.94,193.85Zm-21.46-42.24h43.18a23.66,23.66,0,0,0-3.48-10.82,21.68,21.68,0,0,0-28.56-7.24,21.68,21.68,0,0,0-11.14,18.06Z"/><path class="cls-1" d="M734.18,91.85h5.09a9.94,9.94,0,0,1,9.94,9.94v70.36q0,5.4,1.64,7a5.65,5.65,0,0,0,4.1,1.59,19,19,0,0,0,5.12-.69c1.69-.45,3.08-.87,4.17-1.24l2.19,11.87a44.46,44.46,0,0,1-7.79,2.35,39.32,39.32,0,0,1-8.06,1q-7.79,0-12.1-4.37t-4.3-12.11Z"/><path class="cls-1" d="M802.41,193.85a48.14,48.14,0,0,1-17.08-3,37.33,37.33,0,0,1-13.8-9L777,171.76a46.46,46.46,0,0,0,12.5,7.94,32.39,32.39,0,0,0,12.37,2.55q6.42,0,10.31-2.36a7.66,7.66,0,0,0,3.9-7,6,6,0,0,0-2.12-5.06,19.53,19.53,0,0,0-6-2.87q-3.88-1.22-9.22-2.73a94.87,94.87,0,0,1-12.78-4.85,19.8,19.8,0,0,1-7.85-6.23,16,16,0,0,1-2.6-9.43A19.48,19.48,0,0,1,779.05,130a22.69,22.69,0,0,1,9.9-7.59,37.71,37.71,0,0,1,14.69-2.67,41.8,41.8,0,0,1,14.42,2.42,31.41,31.41,0,0,1,11.68,7.52l-6.42,9.93a32.61,32.61,0,0,0-9.71-6.34,28.13,28.13,0,0,0-10.79-2.07,26.12,26.12,0,0,0-6.21.75,11,11,0,0,0-5.13,2.73,7.35,7.35,0,0,0-2.05,5.53,6.36,6.36,0,0,0,1.71,4.71,13.85,13.85,0,0,0,5,2.93q3.27,1.23,8.06,2.73a123.25,123.25,0,0,1,14.21,4.78,23.86,23.86,0,0,1,9.09,6.21q3.21,3.76,3.21,10.31,0,10.24-7.72,16.11T802.41,193.85Z"/><path class="cls-1" d="M634.31,178.47a5.68,5.68,0,0,1-.95-3.62V120.28h-15v44.66a27.05,27.05,0,0,1-5.4,8.37,23.16,23.16,0,0,1-7.38,5.24,20.41,20.41,0,0,1-8.27,1.77q-6.69,0-10.17-4.86T583.62,161V120.28h-15v43.83q0,14.38,5.73,21.79t16.95,7.4a35.39,35.39,0,0,0,16.88-4.12,31.87,31.87,0,0,0,12.37-11.64l.38,7.66c.67,5.76,4.44,7.47,8.6,7.47,4.73,0,8-2.92,8-6.73v-6.17A4.21,4.21,0,0,1,634.31,178.47Z"/><path class="cls-1" d="M451.38,190.44h35.4a.32.32,0,0,1,.32.32v0a7,7,0,0,1-7,7H451.38a.32.32,0,0,1-.32-.32v-6.68a.32.32,0,0,1,.32-.32Z"/><path class="cls-2" d="M219.74,166.82c5.19,45-28.45,85.88-75.14,91.26s-88.74-26.75-93.93-71.77S130.41,17.67,130.41,17.67C133.36,17.5,214.55,121.81,219.74,166.82Z"/><path class="cls-3" d="M173.56,233.05S129.23,220.16,114.08,168-10.82,127.83,4.45,211.93s105.8,103.24,136.23,102.84c20.54-.27,75.45-8.8,86.86-59a7.22,7.22,0,0,0,.18-1.61c0-4.18-1.28-21.54-21.85-20.68C182.49,234.49,179,234.34,173.56,233.05Z"/><circle class="cls-1" cx="124.69" cy="292.16" r="6.32"/><path class="cls-1" d="M172.82,219.41a122.94,122.94,0,0,0,12.61-17.08,84.06,84.06,0,0,0,8.43-18.74,75.26,75.26,0,0,0,2.18-10,82.94,82.94,0,0,0,.69-10.24,107.44,107.44,0,0,0-2.74-21A51.81,51.81,0,0,1,201.54,163a54,54,0,0,1,.33,11.23,57.35,57.35,0,0,1-2.09,11.1,59.11,59.11,0,0,1-10.41,19.72A54.93,54.93,0,0,1,172.82,219.41Z"/><circle class="cls-1" cx="230.32" cy="34.3" r="34.3"/><path class="cls-1" d="M147.72,303.13a8.25,8.25,0,0,1-.64-16.47c10.15-.82,38.77-6.35,49.16-22A8.25,8.25,0,0,1,210,273.81c-17,25.55-59.8,29.15-61.61,29.29Z"/></g></g></svg>