<svg xmlns="http://www.w3.org/2000/svg" viewBox="0 0 952.88 926.68"><defs><style>.cls-1{fill:#4cc1be;}.cls-2{fill:#a3da4b;}.cls-3{fill:#bfebce;}.cls-4{fill:#f5b400;}.cls-5{fill:#b5e55a;}.cls-6{fill:#318c5a;}</style></defs><g id="Layer_2" data-name="Layer 2"><g id="Layer_2-2" data-name="Layer 2"><path class="cls-1" d="M645.18,327.59c10.19,88.4-55.87,168.63-147.55,179.2S323.37,454.26,313.18,365.86,469.76,34.71,469.76,34.71C475.56,34.36,635,239.19,645.18,327.59Z"/><path class="cls-2" d="M554.5,457.64s-87.06-25.31-116.81-127.75S192.43,251,222.42,416.18,430.17,618.89,489.93,618.11c40.32-.54,148.16-17.27,170.57-115.79a13.51,13.51,0,0,0,.35-3.17c0-8.21-2.52-42.3-42.91-40.61C572,460.47,565.14,460.17,554.5,457.64Z"/><circle class="cls-3" cx="458.53" cy="573.71" r="12.42"/><path class="cls-3" d="M553,430.86a239.26,239.26,0,0,0,24.77-33.54,164.56,164.56,0,0,0,16.55-36.81A144.82,144.82,0,0,0,598.64,341a165.34,165.34,0,0,0,1.35-20.1c-.23-13.55-2.33-27.21-5.38-41.19a101.79,101.79,0,0,1,14.83,40.48,106.22,106.22,0,0,1,.65,22.06A113.54,113.54,0,0,1,606,364a116.13,116.13,0,0,1-20.44,38.74C576.49,414.06,565.67,424,553,430.86Z"/><circle class="cls-4" cx="665.95" cy="67.36" r="67.36"/><path class="cls-5" d="M503.75,595.25a16.19,16.19,0,0,1-1.25-32.34c19.93-1.6,76.12-12.46,96.53-43.16a16.2,16.2,0,0,1,27,17.94c-33.36,50.16-117.43,57.24-121,57.51C504.59,595.24,504.17,595.25,503.75,595.25Z"/><path class="cls-6" d="M552.11,482.66c-1.29-.21-2.51-.45-3.71-.71a56.7,56.7,0,0,1-8.73-2.66c-19.38-7.55-94-42.13-118-134.48q-.61-2.34-1.35-4.59c-18.73-57.18-99.5-52.29-114.41,6-2.29,8.93-3.42,17.09-3.15,24.24,3,80.64,75.94,143.36,162.85,140.1A165.48,165.48,0,0,0,552.11,482.66Z"/><path class="cls-4" d="M76,926.68V886.91H24.51A24.51,24.51,0,0,1,0,862.4H0L84.7,752.08h18.83V861.89h21.79v25H103.53v17.6a22.17,22.17,0,0,1-22.17,22.17ZM27.49,861.89H79V794.11Z"/><path class="cls-2" d="M143.27,808.54a89,89,0,0,1,21.44-57.79,78.13,78.13,0,0,1,25.58-19.62q15-7.29,34.24-7.3,23,0,39.43,10.41a66,66,0,0,1,24.53,26.68L267.64,775a43.29,43.29,0,0,0-11.72-16.28,42.83,42.83,0,0,0-15.76-8.37A61.82,61.82,0,0,0,223.57,748a47.49,47.49,0,0,0-23,5.38,51.74,51.74,0,0,0-16.7,14.24,62,62,0,0,0-10.07,19.86,76,76,0,0,0-3.32,22,71.74,71.74,0,0,0,3.91,23.69,63.77,63.77,0,0,0,11.14,20,53.7,53.7,0,0,0,17.06,13.76,47,47,0,0,0,21.67,5,54.51,54.51,0,0,0,17.06-2.87A48.87,48.87,0,0,0,257.57,860a42.94,42.94,0,0,0,11.73-15.8l22,12.44a51.29,51.29,0,0,1-16,21.54,78.42,78.42,0,0,1-24.75,13.4,86.18,86.18,0,0,1-27.25,4.55,68.94,68.94,0,0,1-32-7.54,83.42,83.42,0,0,1-25.46-20.1,93.63,93.63,0,0,1-16.7-28.23A88.79,88.79,0,0,1,143.27,808.54Z"/><path class="cls-1" d="M376,893.57V726.37A1.34,1.34,0,0,1,377.3,725H486.43a1.34,1.34,0,0,1,1.34,1.34v.27a22.09,22.09,0,0,1-22.09,22.08H404.07a1.34,1.34,0,0,0-1.34,1.34v48a1.34,1.34,0,0,0,1.34,1.34h68.62a1.35,1.35,0,0,1,1.35,1.34h0a20.68,20.68,0,0,1-20.68,20.68H404.07a1.34,1.34,0,0,0-1.34,1.34v50.44a21.68,21.68,0,0,1-21.68,21.67H377.3A1.34,1.34,0,0,1,376,893.57Z"/><path class="cls-1" d="M701.92,898.27a64.78,64.78,0,0,1-26.3-5.12,62.23,62.23,0,0,1-20.14-14,63.62,63.62,0,0,1-13.15-20.42,64.81,64.81,0,0,1-4.61-24.35,66.23,66.23,0,0,1,8-32.41,61.51,61.51,0,0,1,22.62-23.43q14.58-8.74,33.53-8.76,19.65,0,33.75,8.89a62.69,62.69,0,0,1,25,29.79,64.66,64.66,0,0,1,4.72,26.23q0,1.94-.21,3.69c-.16,1.66-.32,3-.47,3.9H665.2a43.74,43.74,0,0,0,6.39,19.25,37.49,37.49,0,0,0,13.5,12.76,35.61,35.61,0,0,0,17.54,4.6,40.14,40.14,0,0,0,20-5.26q9.36-5.28,12.67-13.88l22.28,6.46a47.38,47.38,0,0,1-12.32,16.39A62.45,62.45,0,0,1,726,894.07,67,67,0,0,1,701.92,898.27ZM664.72,825h74.86a41,41,0,0,0-6-18.76A37.58,37.58,0,0,0,684,793.73a37.86,37.86,0,0,0-13.39,12.55A38.38,38.38,0,0,0,664.72,825Z"/><path class="cls-1" d="M785.55,721.44h8.82a17.24,17.24,0,0,1,17.24,17.23v122q0,9.36,2.85,12.12a9.76,9.76,0,0,0,7.1,2.76,33.06,33.06,0,0,0,8.88-1.2c2.92-.79,5.33-1.52,7.23-2.15l3.79,20.57a76.07,76.07,0,0,1-13.5,4.07,68.12,68.12,0,0,1-14,1.68q-13.5,0-21-7.56t-7.46-21Z"/><path class="cls-1" d="M903.84,898.27A83.53,83.53,0,0,1,874.23,893a64.41,64.41,0,0,1-23.92-15.56L859.78,860a80.81,80.81,0,0,0,21.67,13.75,56,56,0,0,0,21.45,4.43q11.13,0,17.88-4.1A13.26,13.26,0,0,0,927.53,862q0-5.93-3.67-8.77a33.69,33.69,0,0,0-10.43-5q-6.75-2.13-16-4.74a162.09,162.09,0,0,1-22.16-8.41q-9.12-4.4-13.62-10.79T857.17,808q0-11.87,6.17-20.39a39.3,39.3,0,0,1,17.17-13.16q11-4.62,25.47-4.63A72.49,72.49,0,0,1,931,774a54.63,54.63,0,0,1,20.26,13l-11.14,17.22a56.59,56.59,0,0,0-16.83-11,48.87,48.87,0,0,0-18.7-3.58,45.61,45.61,0,0,0-10.78,1.29,19.06,19.06,0,0,0-8.89,4.73q-3.54,3.45-3.55,9.59c0,3.47,1,6.2,2.95,8.16A24,24,0,0,0,893,818.5q5.67,2.13,14,4.74a213.44,213.44,0,0,1,24.64,8.28q10.17,4.26,15.75,10.77t5.57,17.87q0,17.76-13.38,27.93T903.84,898.27Z"/><path class="cls-1" d="M612.42,871.61c-1.1-1.35-1.66-3.44-1.66-6.29V770.73H584.7v77.42a46.68,46.68,0,0,1-9.34,14.51,40.1,40.1,0,0,1-12.8,9.08,35.26,35.26,0,0,1-14.33,3.07q-11.61,0-17.65-8.42t-6.05-25V770.73h-26v76q0,24.93,9.94,37.76t29.39,12.83a61.43,61.43,0,0,0,29.25-7.13A55.23,55.23,0,0,0,588.5,870l.67,13.28c1.16,10,7.7,13,14.91,13,8.19,0,13.79-5.08,13.79-11.68V873.86Q614.09,873.62,612.42,871.61Z"/><path class="cls-4" d="M295.2,892.35h61.54a.47.47,0,0,1,.47.47v2A10.24,10.24,0,0,1,347,905H295.2a.47.47,0,0,1-.47-.47V892.82A.47.47,0,0,1,295.2,892.35Z"/></g></g></svg>