<svg xmlns="http://www.w3.org/2000/svg" viewBox="0 0 1535.87 618.12"><defs><style>.cls-1{fill:#4cc1be;}.cls-2{fill:#a3da4b;}.cls-3{fill:#bfebce;}.cls-4{fill:#f5b400;}.cls-5{fill:#b5e55a;}.cls-6{fill:#318c5a;}</style></defs><g id="Layer_2" data-name="Layer 2"><g id="Layer_2-2" data-name="Layer 2"><path class="cls-1" d="M425.61,327.59c10.19,88.4-55.87,168.63-147.55,179.2S103.8,454.26,93.61,365.86,250.2,34.71,250.2,34.71C256,34.36,415.42,239.19,425.61,327.59Z"/><path class="cls-2" d="M334.93,457.64s-87.06-25.31-116.8-127.75S-27.13,251,2.85,416.18,210.6,618.89,270.37,618.11c40.32-.54,148.16-17.27,170.56-115.79a14.07,14.07,0,0,0,.36-3.17c0-8.21-2.52-42.3-42.92-40.61C352.46,460.47,345.58,460.17,334.93,457.64Z"/><circle class="cls-3" cx="238.97" cy="573.71" r="12.42"/><path class="cls-3" d="M333.47,430.86a239.18,239.18,0,0,0,24.76-33.54,165.05,165.05,0,0,0,16.56-36.81A144.79,144.79,0,0,0,379.07,341a163.36,163.36,0,0,0,1.35-20.1c-.23-13.55-2.33-27.21-5.38-41.19a101.49,101.49,0,0,1,14.83,40.48,105.54,105.54,0,0,1,.65,22.06,112.78,112.78,0,0,1-4.1,21.78A116.13,116.13,0,0,1,366,402.72C356.93,414.06,346.1,424,333.47,430.86Z"/><circle class="cls-4" cx="446.39" cy="67.36" r="67.36"/><path class="cls-5" d="M284.19,595.25a16.19,16.19,0,0,1-1.26-32.34c19.93-1.6,76.13-12.46,96.54-43.16a16.2,16.2,0,0,1,27,17.94c-33.35,50.16-117.42,57.24-121,57.51C285,595.24,284.6,595.25,284.19,595.25Z"/><path class="cls-6" d="M332.54,482.66c-1.28-.21-2.5-.45-3.7-.71a57.16,57.16,0,0,1-8.74-2.66c-19.38-7.55-94-42.13-118-134.48q-.6-2.34-1.35-4.59c-18.72-57.18-99.49-52.29-114.41,6-2.28,8.93-3.41,17.09-3.14,24.24,3,80.64,75.93,143.36,162.84,140.1A165.45,165.45,0,0,0,332.54,482.66Z"/><path class="cls-4" d="M659,411.68V371.91H607.51A24.51,24.51,0,0,1,583,347.4h0l84.7-110.32h18.82V346.89h21.79v25H686.52v17.6a22.16,22.16,0,0,1-22.16,22.17Zm-48.55-64.79H662V279.11Z"/><path class="cls-2" d="M726.26,293.54a89.19,89.19,0,0,1,21.44-57.79,78.27,78.27,0,0,1,25.59-19.62q15-7.29,34.24-7.3,23,0,39.43,10.41a65.9,65.9,0,0,1,24.52,26.68L850.64,260a43.51,43.51,0,0,0-11.72-16.28,42.87,42.87,0,0,0-15.77-8.37A61.8,61.8,0,0,0,806.57,233a47.53,47.53,0,0,0-23,5.38,51.85,51.85,0,0,0-16.7,14.24,61.94,61.94,0,0,0-10.06,19.86,75.69,75.69,0,0,0-3.32,22,71.49,71.49,0,0,0,3.91,23.69,63.77,63.77,0,0,0,11.14,20,53.66,53.66,0,0,0,17.05,13.76,47,47,0,0,0,21.67,5,54.47,54.47,0,0,0,17.06-2.87A48.91,48.91,0,0,0,840.57,345a42.92,42.92,0,0,0,11.72-15.8l22,12.44a51.18,51.18,0,0,1-16,21.54,78.47,78.47,0,0,1-24.76,13.4,86.12,86.12,0,0,1-27.24,4.55,68.91,68.91,0,0,1-32-7.54,83.46,83.46,0,0,1-25.47-20.1,94,94,0,0,1-16.7-28.23A89,89,0,0,1,726.26,293.54Z"/><path class="cls-1" d="M959,378.57V211.37a1.34,1.34,0,0,1,1.34-1.34h109.13a1.34,1.34,0,0,1,1.34,1.34v.27a22.08,22.08,0,0,1-22.08,22.08H987.07a1.35,1.35,0,0,0-1.35,1.34v48a1.35,1.35,0,0,0,1.35,1.34h68.62a1.34,1.34,0,0,1,1.34,1.34h0a20.68,20.68,0,0,1-20.68,20.68H987.07a1.35,1.35,0,0,0-1.35,1.34v50.44a21.67,21.67,0,0,1-21.67,21.67h-3.76A1.34,1.34,0,0,1,959,378.57Z"/><path class="cls-1" d="M1284.91,383.27a64.78,64.78,0,0,1-26.3-5.12,62.08,62.08,0,0,1-20.13-14,63.45,63.45,0,0,1-13.15-20.42,64.82,64.82,0,0,1-4.62-24.35,66.24,66.24,0,0,1,8.06-32.41,61.37,61.37,0,0,1,22.62-23.43q14.56-8.74,33.52-8.76,19.65,0,33.76,8.89a62.67,62.67,0,0,1,25,29.79,64.67,64.67,0,0,1,4.73,26.23c0,1.29-.1,2.52-.22,3.69-.15,1.66-.31,2.95-.47,3.9h-99.5a43.88,43.88,0,0,0,6.4,19.25,37.49,37.49,0,0,0,13.5,12.76,35.61,35.61,0,0,0,17.54,4.6,40.17,40.17,0,0,0,20-5.26q9.34-5.28,12.67-13.88l22.27,6.46a47.34,47.34,0,0,1-12.31,16.39A62.5,62.5,0,0,1,1309,379.07,67,67,0,0,1,1284.91,383.27ZM1247.72,310h74.86a40.9,40.9,0,0,0-6-18.76,37.57,37.57,0,0,0-49.5-12.55,37.86,37.86,0,0,0-13.39,12.55A38.28,38.28,0,0,0,1247.72,310Z"/><path class="cls-1" d="M1368.54,206.44h8.83a17.23,17.23,0,0,1,17.23,17.23v122c0,6.24,1,10.28,2.85,12.12a9.78,9.78,0,0,0,7.11,2.76,33.11,33.11,0,0,0,8.88-1.2c2.92-.79,5.33-1.52,7.23-2.15l3.79,20.57a75.93,75.93,0,0,1-13.51,4.07,68,68,0,0,1-14,1.68q-13.5,0-21-7.56t-7.47-21Z"/><path class="cls-1" d="M1486.84,383.27a83.49,83.49,0,0,1-29.61-5.27,64.53,64.53,0,0,1-23.93-15.56l9.48-17.46a80.65,80.65,0,0,0,21.67,13.75,55.9,55.9,0,0,0,21.44,4.43q11.14,0,17.89-4.1a13.26,13.26,0,0,0,6.75-12.07q0-5.92-3.67-8.77a33.69,33.69,0,0,0-10.43-5q-6.75-2.13-16-4.74a162.42,162.42,0,0,1-22.15-8.41q-9.12-4.39-13.62-10.79t-4.5-16.35q0-11.86,6.16-20.39a39.3,39.3,0,0,1,17.17-13.16q11-4.62,25.47-4.63a72.59,72.59,0,0,1,25,4.19,54.67,54.67,0,0,1,20.25,13l-11.13,17.22a56.71,56.71,0,0,0-16.83-11,48.92,48.92,0,0,0-18.71-3.58,45.67,45.67,0,0,0-10.78,1.29,19,19,0,0,0-8.88,4.73q-3.56,3.45-3.56,9.59c0,3.47,1,6.2,3,8.16a24,24,0,0,0,8.65,5.09q5.68,2.13,14,4.74a214.76,214.76,0,0,1,24.64,8.28q10.17,4.26,15.75,10.77t5.56,17.87q0,17.76-13.37,27.93T1486.84,383.27Z"/><path class="cls-1" d="M1195.42,356.61c-1.1-1.35-1.66-3.44-1.66-6.29V255.73H1167.7v77.42a46.88,46.88,0,0,1-9.35,14.51,40.1,40.1,0,0,1-12.8,9.08,35.22,35.22,0,0,1-14.33,3.07q-11.61,0-17.64-8.42t-6-25V255.73h-26.06v76q0,24.93,10,37.76t29.38,12.83a61.44,61.44,0,0,0,29.26-7.13A55.36,55.36,0,0,0,1171.5,355l.66,13.28c1.16,10,7.71,13,14.92,13,8.19,0,13.79-5.08,13.79-11.68V358.86Q1197.07,358.62,1195.42,356.61Z"/><path class="cls-4" d="M878.19,377.35h61.54a.47.47,0,0,1,.47.47v2A10.24,10.24,0,0,1,930,390H878.19a.47.47,0,0,1-.47-.47V377.82A.47.47,0,0,1,878.19,377.35Z"/></g></g></svg>