<svg xmlns="http://www.w3.org/2000/svg" viewBox="0 0 366.85 441.38"><defs><style>.cls-1{fill:#4cc1be;}.cls-2{fill:#a3da4b;}.cls-3{fill:#bfebce;}.cls-4{fill:#f5b400;}.cls-5{fill:#b5e55a;}.cls-6{fill:#318c5a;}</style></defs><g id="Layer_2" data-name="Layer 2"><g id="Layer_2-2" data-name="Layer 2"><path class="cls-1" d="M303.91,233.92c7.28,63.12-39.89,120.41-105.36,128S74.12,324.37,66.85,261.25,178.66,24.78,178.66,24.78C182.8,24.54,296.64,170.8,303.91,233.92Z"/><path class="cls-2" d="M239.16,326.79s-62.16-18.08-83.4-91.23S-19.37,179.25,2,297.18s148.34,144.75,191,144.19c28.79-.38,105.8-12.33,121.79-82.68a10.13,10.13,0,0,0,.26-2.27c0-5.86-1.8-30.2-30.65-29C251.68,328.8,246.76,328.59,239.16,326.79Z"/><circle class="cls-3" cx="170.64" cy="409.67" r="8.87"/><path class="cls-3" d="M238.12,307.66a171.13,171.13,0,0,0,17.68-24,117.53,117.53,0,0,0,11.82-26.28,102.33,102.33,0,0,0,3.06-14,115.79,115.79,0,0,0,1-14.35,149.63,149.63,0,0,0-3.84-29.41,72.44,72.44,0,0,1,10.59,28.9,75.31,75.31,0,0,1,.47,15.75,80.59,80.59,0,0,1-2.93,15.56,83,83,0,0,1-14.59,27.66C254.87,295.67,247.14,302.79,238.12,307.66Z"/><circle class="cls-4" cx="318.75" cy="48.1" r="48.1"/><path class="cls-5" d="M202.93,425.05A11.57,11.57,0,0,1,202,402c14.24-1.14,54.36-8.9,68.93-30.81A11.57,11.57,0,1,1,290.23,384c-23.82,35.81-83.85,40.87-86.4,41.06C203.53,425,203.23,425.05,202.93,425.05Z"/><path class="cls-6" d="M237.46,344.65c-.92-.15-1.79-.32-2.65-.5a41.58,41.58,0,0,1-6.24-1.91c-13.84-5.39-67.15-30.08-84.24-96-.28-1.11-.6-2.21-1-3.28-13.37-40.83-71-37.34-81.69,4.27a62,62,0,0,0-2.25,17.32c2.16,57.58,54.22,102.36,116.28,100A118.07,118.07,0,0,0,237.46,344.65Z"/></g></g></svg>